<svg xmlns="http://www.w3.org/2000/svg" viewBox="0 0 432.7 420.1"><g data-name="Layer 2"><g data-name="Layer 6"><path fill="#004b8a" d="M114.3 420.1v-108l-59.6 45.7 59.6 62.3z"/><path fill="#003276" d="M114.3 420.1H0l54.7-62.3 59.6 62.3z"/><path fill="#299eff" d="M0 420.1V209.4l54.7 148.4L0 420.1z"/><path fill="#004b8a" d="M114.3 209.4L54.7 357.8l59.6-45.7V209.4z"/><path fill="#005ead" d="M0 209.4h114.3L54.7 357.8 0 209.4z"/><path fill="#299eff" d="M0 209.4l88.7-76.1L0 0v209.4z"/><path fill="#006fcc" d="M114.3 209.4l-25.6-76.1L0 209.4h114.3z"/><path fill="#004b8a" d="M88.7 133.3L114.3 0v209.4l-25.6-76.1z"/><path fill="#005ead" d="M114.3 0H0l88.7 133.3L114.3 0z"/><path fill="#006fcc" d="M114.3 209.4l65.9-99.1L114.3 0v209.4z"/><path fill="#299eff" d="M114.3 209.4l102-38.3-36.1-60.8-65.9 99.1z"/><path fill="#005ead" d="M114.3 209.4l102 171.3-23.6-83.3-78.4-88z"/><path fill="#004b8a" d="M216.3 171.1l-23.6 126.3 23.6 83.3V171.1z"/><path fill="#006fcc" d="M216.3 171.1l-102 38.3 78.4 88 23.6-126.3z"/><path fill="#004b8a" d="M318.3 420.1v-108l59.7 45.7-59.7 62.3z"/><path fill="#003276" d="M318.3 420.1h114.4L378 357.8l-59.7 62.3z"/><path fill="#299eff" d="M432.7 420.1V209.4L378 357.8l54.7 62.3z"/><path fill="#004b8a" d="M318.3 209.4L378 357.8l-59.7-45.7V209.4z"/><path fill="#005ead" d="M432.7 209.4H318.3L378 357.8l54.7-148.4z"/><path fill="#299eff" d="M432.7 209.4L344 133.3 432.7 0v209.4z"/><path fill="#006fcc" d="M318.3 209.4l25.7-76.1 88.7 76.1H318.3z"/><path fill="#004b8a" d="M344 133.3L318.3 0v209.4l25.7-76.1z"/><path fill="#005ead" d="M318.3 0h114.4L344 133.3 318.3 0z"/><path fill="#299eff" d="M318.3 209.4l-65.8-99.1L318.3 0v209.4z"/><path fill="#006fcc" d="M318.3 209.4l-102-38.3 36.2-60.8 65.8 99.1z"/><path fill="#004b8a" d="M318.3 209.4l-102 171.3 23.7-83.3 78.3-88z"/><path fill="#299eff" d="M216.3 171.1L240 297.4l-23.7 83.3V171.1z"/><path fill="#005ead" d="M216.3 171.1l102 38.3-78.3 88-23.7-126.3z"/></g></g></svg>
