<?xml version="1.0" encoding="utf-8"?>
<!-- Generator: Adobe Illustrator 22.1.0, SVG Export Plug-In . SVG Version: 6.00 Build 0)  -->
<svg version="1.1" id="Layer_1" xmlns="http://www.w3.org/2000/svg" xmlns:xlink="http://www.w3.org/1999/xlink" x="0px" y="0px"
	 viewBox="0 0 19.8 17.3" enable-background="new 0 0 19.8 17.3" xml:space="preserve">
<title>smutbase</title>
<g id="Layer_2_1_">
	<g id="Layer_1-2">
		<g id="svg8">
			<polygon id="Silhouette" fill="#0074D1" points="9.9,2.6 4.8,0 0,2.3 0,7.1 5.1,9.6 5.1,14.8 9.9,17.3 14.7,14.8 14.7,9.6 
				19.8,7.1 19.8,2.3 15,0 			"/>
			<path id="Interior" fill="#E2E2E2" d="M15,1.3l2.8,1.4l-7.9,4L2,2.7l2.8-1.4l5.1,2.5L15,1.3z M1.3,3.8v2.8l5.1,2.5v5.2l2.8,1.4
				v-8L1.3,3.8z M10.5,7.8v8l2.8-1.4V9.1l5.1-2.5V3.8L10.5,7.8z"/>
		</g>
	</g>
</g>
</svg>
