<svg xmlns="http://www.w3.org/2000/svg" viewBox="0 0 490.99 510.95"><defs><style>.cls-1{fill:#b3b3b3;}</style></defs><title>blender</title><g id="Layer_2" data-name="Layer 2"><g id="Layer_1-2" data-name="Layer 1"><path class="cls-1" d="M300,209a111,111,0,1,1-78.49,32.51A110.26,110.26,0,0,1,300,209m0-80c-105.49,0-191,85.51-191,191S194.5,511,300,511s191-85.52,191-191S405.48,129,300,129Z"/><path class="cls-1" d="M308.49,129h-249a27.5,27.5,0,0,0,0,55h249a27.5,27.5,0,0,0,0-55Z"/><path class="cls-1" d="M204.16,156.58a27.43,27.43,0,0,0-19.43,8L8.05,341.32A27.47,27.47,0,0,0,46.9,380.17L223.58,203.48a27.48,27.48,0,0,0-19.42-46.9Z"/><path class="cls-1" d="M237.4,0A27.48,27.48,0,0,0,218,46.9l175.8,175.79a27.45,27.45,0,0,0,38.84,0h0a27.47,27.47,0,0,0,0-38.85L256.82,8.05A27.35,27.35,0,0,0,237.4,0Z"/><path class="cls-1" d="M300.47,255a65,65,0,1,0,65,65,65,65,0,0,0-65-65Z"/></g></g></svg>