<svg xmlns="http://www.w3.org/2000/svg" width="2987.47815" height="436.80029" viewBox="0 0 2987.47815 436.80029">
  <title>logo-full</title>
  <g id="Layer_2" data-name="Layer 2">
    <g id="Layer_6" data-name="Layer 6">
      <g>
        <path d="M549.08069,349.19482v52.79981H707.48108v108H435.08069v-420H704.48108v108H549.08069v43.20019H689.48108v108Z" transform="translate(0 -81.59473)" style="fill: #fff"/>
        <path d="M759.38245,490.49463q-42.90528-27.89941-60.90039-75.90039l96-55.79981q11.39063,25.8047,28.7998,36.90039,17.395,11.10938,46.2002,11.09961,18,0,28.5-8.09961,10.49121-8.10059,10.5-16.5a19.94261,19.94261,0,0,0-4.5-13.20019q-4.5-5.39941-18.90039-11.40039-14.39941-5.98976-45.59961-14.39942Q715.87269,308.99512,715.88245,209.395q0-38.9956,19.7998-68.10059A128.51536,128.51536,0,0,1,787.58167,96.895a158.94946,158.94946,0,0,1,69.30078-15.30029q51.59472,0,91.19922,24.30029,39.60059,24.29883,62.40039,70.5l-97.79981,57q-10.21-21.60058-23.40039-30.30078-13.2041-8.68946-32.39941-8.69922a42.35074,42.35074,0,0,0-18,4.19922q-9,4.20556-9,10.80078,0,7.1997,2.69922,11.69922,2.70117,4.5,15,11.10058,12.29149,6.60938,39.90039,15,59.99121,18,97.5,50.09961,37.49121,32.105,37.5,92.10059,0,39.59911-20.7002,68.69922-20.6997,29.10938-56.09961,44.70019-35.40966,15.59619-79.20019,15.60059Q802.2721,518.395,759.38245,490.49463Z" transform="translate(0 -81.59473)" style="fill: #fff"/>
        <path d="M1298.483,241.19482V89.99463h114v420h-114V349.19482h-156V509.99463h-114v-420h114V241.19482Z" transform="translate(0 -81.59473)" style="fill: #fff"/>
        <path d="M1699.88147,285.59424V89.99463h19.19922v420h-19.19922V303.59424H1443.68128V509.99463h-19.2002v-420h19.2002V285.59424Z" transform="translate(0 -81.59473)" style="fill: #fff"/>
        <path d="M1839.08167,488.09424a216.17288,216.17288,0,0,1-78.90039-78.89942q-29.10937-49.79589-29.09961-108.60058,0-58.79444,29.09961-108.59961a216.31586,216.31586,0,0,1,78.90039-78.90039q49.79589-29.09473,108.59961-29.09961,58.79589,0,108.60058,29.09961a216.45389,216.45389,0,0,1,78.89942,78.90039q29.09619,49.80908,29.10058,108.59961,0,58.81054-29.10058,108.60058a216.31071,216.31071,0,0,1-78.89942,78.89942q-49.80908,29.10938-108.60058,29.10058Q1888.87219,517.19482,1839.08167,488.09424Zm207.90039-16.5a195.67188,195.67188,0,0,0,71.69922-71.69922q26.39648-45.29591,26.40039-99.30078,0-54-26.40039-99.29981a195.821,195.821,0,0,0-71.69922-71.70019q-45.31055-26.395-99.30078-26.39942-54,0-99.29981,26.39942a195.69163,195.69163,0,0,0-71.70019,71.70019q-26.4082,45.30909-26.39942,99.29981,0,54,26.39942,99.30078a195.54273,195.54273,0,0,0,71.70019,71.69922q45.2959,26.40966,99.29981,26.40039Q2001.68128,497.99463,2046.98206,471.59424Z" transform="translate(0 -81.59473)" style="fill: #fff"/>
        <path d="M2446.28186,89.99463h19.2002v277.7998q0,44.40967-18,78a127.60551,127.60551,0,0,1-51.29981,52.2002q-33.30029,18.59033-78.90039,18.59961-45.605,0-78.59961-18.59961a126.11566,126.11566,0,0,1-50.70019-52.2002q-17.70556-33.59472-17.7002-78V89.99463h19.2002v277.7998q0,58.80909,33,94.2002,32.98974,35.40966,94.7998,35.40039,62.395,0,95.7002-35.40039,33.30028-35.395,33.2998-94.2002Z" transform="translate(0 -81.59473)" style="fill: #fff"/>
        <path d="M2523.3844,489.895q-40.5-26.69092-54.90039-72.30078L2485.8844,407.395q12.59913,40.20409,48,65.39941,35.395,25.19972,88.19922,25.2002,39.60059,0,66.30078-13.5,26.68945-13.5,39.59961-35.7002A92.83318,92.83318,0,0,0,2740.8844,401.395q0-34.20117-31.80078-55.5-31.80907-21.29151-90-39.90039l-16.19922-5.40039q-40.81055-12.59913-63.90039-23.39942a102.5688,102.5688,0,0,1-38.09961-30q-15.00585-19.1953-15-51,0-33.59619,16.79981-59.40039,16.79-25.79,45.59961-39.59961,28.80028-13.79589,64.7998-13.80029,49.19093,0,84,24.6001a144.31893,144.31893,0,0,1,51,63.59961l-16.7998,7.80078a121.53273,121.53273,0,0,0-44.39942-56.10059q-30.60058-21.29-73.80078-21.2998-34.80468,0-59.09961,13.20019-24.30029,13.20411-36.59961,34.5a90.23457,90.23457,0,0,0-12.30078,45.89942q0,25.20117,13.5,41.10058a93.39387,93.39387,0,0,0,33.60059,24.89942q20.09472,9,56.09961,21l12.60058,4.20019q52.79,17.40967,78,28.2002a118.28917,118.28917,0,0,1,43.19922,31.5q18,20.6997,18,54.90039,0,34.1997-17.09961,60.2998-17.10059,26.09913-48.2998,40.5-31.20556,14.39942-72.60059,14.39942Q2563.87953,516.59424,2523.3844,489.895Z" transform="translate(0 -81.59473)" style="fill: #fff"/>
        <path d="M2782.278,308.395V491.99463h205.20019v18H2763.07776v-420h222v18H2782.278V290.395h187.20019v18Z" transform="translate(0 -81.59473)" style="fill: #fff"/>
      </g>
      <g>
        <polygon points="114.333 428.131 114.333 320.131 54.667 365.798 114.333 428.131" style="fill: #004b8a"/>
        <polygon points="114.333 428.131 0 428.131 54.667 365.798 114.333 428.131" style="fill: #003276"/>
        <polygon points="0 428.131 0 217.465 54.667 365.798 0 428.131" style="fill: #299eff"/>
        <polygon points="114.333 217.465 54.667 365.798 114.333 320.131 114.333 217.465" style="fill: #004b8a"/>
        <polygon points="0 217.465 114.333 217.465 54.667 365.798 0 217.465" style="fill: #005ead"/>
        <polygon points="0 217.465 88.667 141.298 0 8.017 0 217.465" style="fill: #299eff"/>
        <polygon points="114.333 217.465 88.667 141.298 0 217.465 114.333 217.465" style="fill: #006fcc"/>
        <polygon points="88.667 141.298 114.333 8.017 114.333 217.465 88.667 141.298" style="fill: #004b8a"/>
        <polygon points="114.333 8.017 0 8.017 88.667 141.298 114.333 8.017" style="fill: #005ead"/>
        <polygon points="114.333 217.465 114.333 217.465 180.167 118.298 114.333 8.017 114.333 217.465" style="fill: #006fcc"/>
        <polygon points="114.333 217.465 216.333 179.131 180.167 118.298 114.333 217.465" style="fill: #299eff"/>
        <polygon points="114.333 217.465 216.332 388.683 192.667 305.423 114.333 217.465" style="fill: #005ead"/>
        <polygon points="216.333 179.131 192.667 305.423 216.332 388.683 216.333 179.131" style="fill: #004b8a"/>
        <polygon points="216.333 179.131 114.333 217.465 192.667 305.423 216.333 179.131" style="fill: #006fcc"/>
        <polygon points="318.332 428.132 318.332 320.132 377.999 365.799 318.332 428.132" style="fill: #004b8a"/>
        <polygon points="318.332 428.132 432.665 428.132 377.999 365.799 318.332 428.132" style="fill: #003276"/>
        <polygon points="432.665 428.132 432.665 217.465 377.999 365.799 432.665 428.132" style="fill: #299eff"/>
        <polygon points="318.332 217.465 377.999 365.799 318.332 320.132 318.332 217.465" style="fill: #004b8a"/>
        <polygon points="432.665 217.465 318.332 217.465 377.999 365.799 432.665 217.465" style="fill: #005ead"/>
        <polygon points="432.665 217.465 343.999 141.299 432.665 8.017 432.665 217.465" style="fill: #299eff"/>
        <polygon points="318.332 217.465 343.999 141.299 432.665 217.465 318.332 217.465" style="fill: #006fcc"/>
        <polygon points="343.999 141.299 318.332 8.017 318.332 217.465 343.999 141.299" style="fill: #004b8a"/>
        <polygon points="318.332 8.017 432.665 8.017 343.999 141.299 318.332 8.017" style="fill: #005ead"/>
        <polygon points="318.332 217.465 318.332 217.465 252.499 118.299 318.332 8.017 318.332 217.465" style="fill: #299eff"/>
        <polygon points="318.332 217.465 216.332 179.132 252.499 118.299 318.332 217.465" style="fill: #006fcc"/>
        <polygon points="318.332 217.465 216.332 388.683 239.999 305.424 318.332 217.465" style="fill: #004b8a"/>
        <polygon points="216.332 179.132 239.999 305.424 216.332 388.683 216.332 179.132" style="fill: #299eff"/>
        <polygon points="216.332 179.132 318.332 217.465 239.999 305.424 216.332 179.132" style="fill: #005ead"/>
      </g>
    </g>
  </g>
</svg>
