<svg xmlns="http://www.w3.org/2000/svg" data-name="Layer 1" viewBox="0 0 3181.6 442.8"><g data-name="Layer 2"><g data-name="Layer 6"><path fill="#004b8a" d="M114.3 429.7v-108l-59.6 45.7 59.6 62.3z"/><path fill="#003276" d="M114.3 429.7H0l54.7-62.3 59.6 62.3z"/><path fill="#299eff" d="M0 429.7V219.1l54.7 148.3L0 429.7z"/><path fill="#004b8a" d="M114.3 219.1 54.7 367.4l59.6-45.7V219.1z"/><path fill="#005ead" d="M0 219.1h114.3L54.7 367.4 0 219.1z"/><path fill="#299eff" d="m0 219.1 88.7-76.2L0 9.6v209.5z"/><path fill="#006fcc" d="m114.3 219.1-25.6-76.2L0 219.1h114.3z"/><path fill="#004b8a" d="M88.7 142.9 114.3 9.6v209.5l-25.6-76.2z"/><path fill="#005ead" d="M114.3 9.6H0l88.7 133.3L114.3 9.6z"/><path fill="#006fcc" d="m114.3 219.1 65.9-99.2L114.3 9.6v209.5z"/><path fill="#299eff" d="m114.3 219.1 102-38.4-36.1-60.8-65.9 99.2z"/><path fill="#005ead" d="m114.3 219.1 102 171.2-23.6-83.3-78.4-87.9z"/><path fill="#004b8a" d="M216.3 180.7 192.7 307l23.6 83.3V180.7z"/><path fill="#006fcc" d="m216.3 180.7-102 38.4 78.4 87.9 23.6-126.3z"/><path fill="#004b8a" d="M318.3 429.7v-108l59.7 45.7-59.7 62.3z"/><path fill="#003276" d="M318.3 429.7h114.4L378 367.4l-59.7 62.3z"/><path fill="#299eff" d="M432.7 429.7V219.1L378 367.4l54.7 62.3z"/><path fill="#004b8a" d="M318.3 219.1 378 367.4l-59.7-45.7V219.1z"/><path fill="#005ead" d="M432.7 219.1H318.3L378 367.4l54.7-148.3z"/><path fill="#299eff" d="M432.7 219.1 344 142.9 432.7 9.6v209.5z"/><path fill="#006fcc" d="m318.3 219.1 25.7-76.2 88.7 76.2H318.3z"/><path fill="#004b8a" d="M344 142.9 318.3 9.6v209.5l25.7-76.2z"/><path fill="#005ead" d="M318.3 9.6h114.4L344 142.9 318.3 9.6z"/><path fill="#299eff" d="m318.3 219.1-65.8-99.2L318.3 9.6v209.5z"/><path fill="#006fcc" d="m318.3 219.1-102-38.4 36.2-60.8 65.8 99.2z"/><path fill="#004b8a" d="m318.3 219.1-102 171.2L240 307l78.3-87.9z"/><path fill="#299eff" d="M216.3 180.7 240 307l-23.7 83.3V180.7z"/><path fill="#005ead" d="m216.3 180.7 102 38.4L240 307l-23.7-126.3z"/></g></g><g fill="#fff"><path d="M551.3 9.6v420H454V9.6Zm-30 0H733V93H521.3Zm0 158.4H721v81.6H521.3Zm0 178.2H733v83.4H521.3ZM832.4 321.6a117.3 117.3 0 0 0 34.8 25.8 91.7 91.7 0 0 0 39.9 9q22.2 0 36.6-11.1Q958 334.2 958 315q0-16.2-8.4-26.1-8.4-9.9-27-18.9-18.6-9-49.2-20.4a340.6 340.6 0 0 1-34.5-15 168.3 168.3 0 0 1-37-24.9 126.8 126.8 0 0 1-28.7-37.2q-11.4-21.9-11.4-53.1 0-37.2 19.5-64.2t52.8-41.1q33.3-14 74-14.1 42 0 73 13.8 30.9 13.8 51.3 34.8 20.4 21 31.2 42.6l-77.4 43.2a123 123 0 0 0-20.7-26.1 91.8 91.8 0 0 0-25.8-17.4 73.4 73.4 0 0 0-30.3-6.3q-21.6 0-33 9.3Q865 103.2 865 117q0 14.4 11 25.2Q887.4 153 908 162t50 19.2a283.3 283.3 0 0 1 41.5 19.5 148.6 148.6 0 0 1 33.9 26.7 117.2 117.2 0 0 1 23 36q8.5 20.4 8.5 46.8 0 31.8-13 56.7a123.4 123.4 0 0 1-34.7 41.7 158.5 158.5 0 0 1-49.8 25.5 191.6 191.6 0 0 1-57.3 8.7q-40.8 0-76-14.7a192.5 192.5 0 0 1-60.8-39.9Q747.5 363 733 333l70.8-51a192.6 192.6 0 0 0 28.5 39.6ZM1175.9 9.6v420h-101.4V9.6Zm-73.2 153h318v91.2h-318Zm355.2-153v420h-101.4V9.6ZM1561 9.6v420h-70.7V9.6Zm-42.5 162h299.4V237h-299.4ZM1843 9.6v420h-70.8V9.6ZM1870.7 132.6a202.3 202.3 0 0 1 45.9-68.7 212.6 212.6 0 0 1 69.6-45.3q39.8-16.2 86-16.2 47.4 0 87 16.2a213.4 213.4 0 0 1 69.4 45.3 202.3 202.3 0 0 1 45.9 68.7q16.2 39.6 16.2 87 0 46.8-16.2 87a206.2 206.2 0 0 1-45.6 69.6 210.7 210.7 0 0 1-69.3 45.9q-40 16.5-87.3 16.5-46.8 0-87-16.5-40.3-16.5-69.3-45.9a208.3 208.3 0 0 1-45.3-69.6q-16.2-40.2-16.2-87 0-47.4 16.2-87Zm77 164.1a135 135 0 0 0 50.8 53.1q32.4 19.2 73.8 19.2 42 0 74-19.2 32.1-19.2 50.5-53.1 18.2-33.9 18.3-77.1 0-43.2-18-77.1a133.7 133.7 0 0 0-50.1-53.1q-32.2-19.2-74.7-19.2-41.4 0-73.8 19.2a135 135 0 0 0-50.7 53.1q-18.4 33.9-18.3 77.1 0 43.2 18.3 77.1ZM2369.2 9.6v279q0 39 20.7 62.7 20.7 23.7 61.5 23.7 40.2 0 61.2-23.7t21-62.7V9.6h70.8v282q0 34.8-11 62.1a130.4 130.4 0 0 1-31.6 46.5 138.8 138.8 0 0 1-48.6 29.4q-28.2 10.2-61.8 10.2-33.6 0-61.8-10.2a141.8 141.8 0 0 1-48.9-29.4 125.3 125.3 0 0 1-31.5-46.5q-10.8-27.3-10.8-62.1V9.6ZM2694.1 336.9q16 18.3 35.1 28.2 19.2 9.9 43.2 9.9 28.8 0 46.8-15.6 18-15.6 18-40.2 0-23.4-11.4-37.5-11.4-14-31.5-24a469.3 469.3 0 0 0-46.5-19.5 322.2 322.2 0 0 1-34.8-14.7 188.2 188.2 0 0 1-36.6-23.4 116.4 116.4 0 0 1-28.8-34.8q-11.4-20.7-11.4-50.1 0-33.6 17.4-59.1t47.1-39.6q29.7-14 67.5-14.1 37.2 0 64.8 13.2 27.6 13.2 46.5 33.6a176.7 176.7 0 0 1 29.7 42.6l-57.6 32.4a134 134 0 0 0-19.8-29.1 94.5 94.5 0 0 0-27.9-21.6q-15.9-8.1-36.9-8.1-29.4 0-43.2 13.5-13.8 13.5-13.8 31.5a46.6 46.6 0 0 0 10 29.1q9.8 13 30.8 24.3 21 11.4 54.6 23.4A268.7 268.7 0 0 1 2843 204a152.9 152.9 0 0 1 34.5 25.5 118.4 118.4 0 0 1 25 35.7q9.2 20.4 9.2 48 0 29.4-11.4 52.8a113.4 113.4 0 0 1-31.2 39.3 149.4 149.4 0 0 1-44.7 24.6 156.4 156.4 0 0 1-51.9 8.7q-37.2 0-68.7-14.7a180 180 0 0 1-54.9-39.3 207.2 207.2 0 0 1-37.2-53.4l52.8-36.6a267.1 267.1 0 0 0 29.7 42.3ZM2995.6 9.6v420H2926V9.6Zm-25.8 0h211.8V72h-211.8Zm0 164.4h199.8v61.2h-199.8Zm0 193.2h211.8v62.4h-211.8Z"/></g></svg>
