<?xml version="1.0" encoding="utf-8"?>
<!-- Generator: Adobe Illustrator 22.1.0, SVG Export Plug-In . SVG Version: 6.00 Build 0)  -->
<svg version="1.1" id="Layer_1" xmlns="http://www.w3.org/2000/svg" xmlns:xlink="http://www.w3.org/1999/xlink" x="0px" y="0px"
	 viewBox="0 0 77.4 17.3" style="enable-background:new 0 0 77.4 17.3;" xml:space="preserve">
<style type="text/css">
	.st0{fill:#0074D1;}
	.st1{fill:#E2E2E2;}
	.st2{fill:none;}
	.st3{enable-background:new    ;}
	.st4{fill:#FFFFFF;}
</style>
<title>smutbase</title>
<g id="Layer_2_1_">
	<g id="Layer_1-2">
		<g id="svg8">
			<polygon id="Silhouette" class="st0" points="9.9,2.6 4.8,0 0,2.3 0,7.1 5.1,9.6 5.1,14.8 9.9,17.3 14.7,14.8 14.7,9.6 19.8,7.1 
				19.8,2.3 15,0 			"/>
			<path id="Interior" class="st1" d="M15,1.3l2.8,1.4l-7.9,4L2,2.7l2.8-1.4l5.1,2.5L15,1.3z M1.3,3.8v2.8l5.1,2.5v5.2l2.8,1.4v-8
				L1.3,3.8z M10.5,7.8v8l2.8-1.4V9.1l5.1-2.5V3.8L10.5,7.8z"/>
		</g>
	</g>
</g>
<g>
	<rect x="21.2" y="4.8" class="st2" width="56.3" height="6.8"/>
</g>
<g class="st3">
	<path class="st4" d="M24.5,5.2c0.6,0,1.1,0.1,1.6,0.4c0.4,0.2,0.8,0.6,1,1c0.2,0.5,0.4,1,0.4,1.6c0,0.6-0.1,1.2-0.4,1.6
		c-0.2,0.5-0.6,0.8-1,1s-1,0.4-1.6,0.4c-0.6,0-1.1-0.1-1.6-0.4c-0.4-0.2-0.8-0.6-1-1c-0.2-0.5-0.4-1-0.4-1.6c0-0.6,0.1-1.2,0.4-1.6
		c0.2-0.5,0.6-0.8,1-1C23.3,5.3,23.9,5.2,24.5,5.2z M24.5,6.6c-0.2,0-0.4,0.1-0.6,0.2c-0.2,0.1-0.3,0.3-0.4,0.5
		c-0.1,0.2-0.1,0.5-0.1,0.9c0,0.4,0,0.7,0.1,0.9c0.1,0.2,0.2,0.4,0.4,0.5c0.2,0.1,0.4,0.2,0.6,0.2c0.2,0,0.4-0.1,0.6-0.2
		c0.2-0.1,0.3-0.3,0.4-0.5c0.1-0.2,0.1-0.5,0.1-0.9c0-0.4,0-0.7-0.1-0.9c-0.1-0.2-0.2-0.4-0.4-0.5C24.9,6.6,24.7,6.6,24.5,6.6z"/>
	<path class="st4" d="M31.3,5.2c0.5,0,0.9,0.1,1.3,0.2s0.6,0.4,0.8,0.7c0.2,0.3,0.3,0.7,0.3,1.1c0,0.4-0.1,0.8-0.3,1.1
		c-0.2,0.3-0.5,0.5-0.8,0.7c-0.4,0.2-0.8,0.2-1.3,0.2h-1.1v1.9h-1.8V5.2H31.3z M31,8c0.3,0,0.5-0.1,0.6-0.2s0.2-0.3,0.2-0.5
		c0-0.2-0.1-0.4-0.2-0.5S31.2,6.6,31,6.6h-0.8V8H31z"/>
	<path class="st4" d="M34.5,11.2V5.2h4.8v1.4h-3v1h2.4v1.3h-2.4v0.9h3.1v1.4H34.5z"/>
	<path class="st4" d="M45.7,5.2v5.9h-2l-1.6-2.9l-0.4-0.8h0l0,1.2v2.6h-1.6V5.2h2l1.6,2.9L44.2,9h0l0-1.2V5.2H45.7z"/>
	<path class="st4" d="M49,11.3c-0.7,0-1.2-0.1-1.7-0.4c-0.4-0.2-0.7-0.6-0.9-1.1l1.7-0.7c0,0.2,0,0.4,0.1,0.5
		c0.1,0.1,0.2,0.2,0.3,0.2c0.1,0,0.2,0.1,0.4,0.1s0.2,0,0.3-0.1c0.1,0,0.2-0.1,0.2-0.2c0.1-0.1,0.1-0.2,0.1-0.3c0-0.1,0-0.2-0.1-0.3
		c-0.1-0.1-0.1-0.1-0.2-0.2s-0.2,0-0.3,0c-0.1,0-0.2,0-0.2,0c-0.1,0-0.1,0-0.2,0V7.7c0,0,0.1,0,0.1,0s0.1,0,0.2,0
		c0.2,0,0.4,0,0.5-0.1c0.1-0.1,0.2-0.3,0.2-0.5c0-0.2,0-0.3-0.1-0.4c-0.1-0.1-0.2-0.1-0.4-0.1c-0.2,0-0.3,0.1-0.5,0.2
		S48.2,7,48.2,7.3l-1.6-0.5c0-0.4,0.2-0.7,0.4-0.9c0.2-0.2,0.5-0.4,0.9-0.5s0.7-0.2,1.1-0.2c0.5,0,0.9,0.1,1.2,0.2
		c0.3,0.1,0.6,0.3,0.7,0.6c0.2,0.2,0.3,0.5,0.3,0.9c0,0.3,0,0.5-0.1,0.7s-0.2,0.3-0.3,0.4c-0.1,0.1-0.3,0.2-0.4,0.2
		s-0.2,0.1-0.3,0.1v0c0.1,0,0.2,0,0.3,0c0.1,0,0.3,0.1,0.4,0.2c0.1,0.1,0.3,0.2,0.4,0.4c0.1,0.2,0.1,0.4,0.1,0.7
		c0,0.4-0.1,0.7-0.3,1c-0.2,0.3-0.5,0.5-0.8,0.6C49.9,11.2,49.5,11.3,49,11.3z"/>
	<path class="st4" d="M54.9,5.2c0.9,0,1.6,0.3,2.1,0.8s0.7,1.2,0.7,2.2c0,0.9-0.2,1.7-0.7,2.2c-0.5,0.5-1.2,0.8-2.1,0.8h-2.7V5.2
		H54.9z M54.7,9.8c0.4,0,0.8-0.1,0.9-0.4c0.2-0.3,0.3-0.7,0.3-1.2s-0.1-1-0.3-1.2c-0.2-0.3-0.5-0.4-0.9-0.4h-0.7v3.3H54.7z"/>
	<path class="st4" d="M60.5,9.8h2.8v1.4h-4.7V5.2h1.8V9.8z"/>
	<path class="st4" d="M63.5,11.2l2-5.9h2.2l2,5.9h-1.9l-1-3.6l-0.3-1h0l-0.2,1l-1,3.6H63.5z M65,10V8.8h3.4V10H65z"/>
	<path class="st4" d="M70.3,11.2V5.2h3.2c0.7,0,1.3,0.1,1.7,0.4c0.4,0.3,0.5,0.7,0.5,1.2c0,0.3-0.1,0.6-0.3,0.9s-0.5,0.4-1,0.5v0
		c0.5,0.1,0.8,0.2,1.1,0.5c0.2,0.3,0.4,0.6,0.4,0.9c0,0.5-0.2,0.9-0.5,1.2c-0.4,0.3-0.9,0.4-1.6,0.4H70.3z M72,7.6h1
		c0.5,0,0.7-0.2,0.7-0.5c0-0.4-0.2-0.5-0.7-0.5h-1V7.6z M72,9.9h1.2c0.2,0,0.4,0,0.5-0.1c0.1-0.1,0.2-0.2,0.2-0.4
		c0-0.2-0.1-0.3-0.2-0.4s-0.3-0.1-0.5-0.1H72V9.9z"/>
</g>
</svg>
