<svg xmlns="http://www.w3.org/2000/svg" width="463.86621" height="172.70379" viewBox="0 0 463.86621 172.70379">
  <title>logo_wide</title>
  <g id="Layer_2" data-name="Layer 2">
    <g id="Layer_1-2" data-name="Layer 1">
      <g id="Layer_2-2" data-name="Layer 2">
        <circle cx="71" cy="69.70379" r="15" style="fill: #ffffff"/>
        <circle cx="103" cy="91.70379" r="15" style="fill: #ffffff"/>
        <circle cx="39" cy="91.70379" r="15" style="fill: #ffffff"/>
        <circle cx="53" cy="130.70379" r="15" style="fill: #ffffff"/>
        <circle cx="71" cy="101.70379" r="9" style="fill: #ffffff"/>
        <circle cx="91" cy="128.70379" r="15" style="fill: #ffffff"/>
        <circle cx="92" cy="128.70379" r="15" style="fill: #ffffff"/>
        <polyline points="129 84.704 180 54.704 189 67.704" style="fill: none;stroke: #ffffff;stroke-miterlimit: 10;stroke-width: 10px"/>
        <polyline points="145 2.704 154 16.704 110 55.704" style="fill: none;stroke: #ffffff;stroke-miterlimit: 10;stroke-width: 10px"/>
      </g>
      <g>
        <path d="M215.89551,83.54363A32.836,32.836,0,0,1,226.75,85.20086a23.02478,23.02478,0,0,1,8.32031,5.0376l-5.78515,8.51513a24.481,24.481,0,0,0-6.208-3.86767,18.32646,18.32646,0,0,0-7.24707-1.39746,11.06734,11.06734,0,0,0-3.25.39013,3.64,3.64,0,0,0-1.7876,1.07227,2.366,2.366,0,0,0-.55225,1.52734,1.926,1.926,0,0,0,1.26758,1.69043,15.62571,15.62571,0,0,0,3.542,1.16992l6.5,1.49512q6.49952,1.49561,9.68555,4.3877a10.13632,10.13632,0,0,1,3.18457,7.89648,13.15988,13.15988,0,0,1-2.4375,8.125,14.67141,14.67141,0,0,1-6.66211,4.876,26.49431,26.49431,0,0,1-9.55566,1.625,39.70448,39.70448,0,0,1-8.22217-.84571,32.17391,32.17391,0,0,1-7.3125-2.43652,23.30471,23.30471,0,0,1-5.71973-3.80273l5.71973-8.77539a18.60388,18.60388,0,0,0,4.29,3.02246,26.53262,26.53262,0,0,0,5.395,2.1123,20.985,20.985,0,0,0,5.52539.78027,11.07968,11.07968,0,0,0,3.08691-.35742,3.36617,3.36617,0,0,0,1.72266-1.00781,2.416,2.416,0,0,0,.52051-1.55957,2.1889,2.1889,0,0,0-.84571-1.78711,8.29693,8.29693,0,0,0-3.18457-1.20312l-7.1499-1.625a32.61565,32.61565,0,0,1-6.5-2.14454,11.93086,11.93086,0,0,1-4.77783-3.80273,10.56959,10.56959,0,0,1-1.7876-6.40283,12.70772,12.70772,0,0,1,2.27539-7.4751,14.7875,14.7875,0,0,1,6.62989-5.06982A27.09307,27.09307,0,0,1,215.89551,83.54363Z" style="fill: #ffffff"/>
        <path d="M274.65527,94.13836H253.39941v7.4751h17.03028v9.94482H253.39941v15.53516H240.13965V84.19353h34.51562Z" style="fill: #ffffff"/>
        <path d="M332.56934,84.19353v42.89991h-11.7002V109.93328l.26074-13.84473H321l-9.42578,31.00489H300.91406l-9.29492-31.00489h-.19434l.25977,13.84473v17.16016H279.98438V84.19353H298.7041l5.78516,20.34424,2.14551,8.51563h.12988l2.14453-8.51563,5.78516-20.34424Z" style="fill: #ffffff"/>
        <path d="M353.69336,117.1491h20.41016v9.94434H340.43359V84.19353h13.25977Z" style="fill: #ffffff"/>
        <path d="M375.53223,127.09344l14.43066-42.89991H405.8877l14.49511,42.89991H406.73242l-7.01953-26-1.82031-7.02h-.12988l-1.75489,6.95507L388.793,127.09344Zm10.335-8.90528v-8.58008H410.1123v8.58008Z" style="fill: #ffffff"/>
        <path d="M424.15137,127.09344V84.19353H446.9668q8.05811.06519,11.92675,2.95752,3.86719,2.89306,3.86817,8.54737a9.57137,9.57137,0,0,1-2.24317,6.37011q-2.24121,2.66676-6.9873,3.3794v.06543q5.26611.65039,7.7998,3.37988a9.55844,9.55844,0,0,1,2.53516,6.75977q0,5.59131-3.86719,8.51562-3.86865,2.9253-11.668,2.92481Zm12.74023-25.87012h7.41016q4.875,0,4.875-3.835,0-3.83423-4.875-3.835H436.8916Zm0,16.90039h8.38477a5.89209,5.89209,0,0,0,3.77051-1.00781,3.51983,3.51983,0,0,0,1.23437-2.89258,3.42625,3.42625,0,0,0-1.23437-2.85938,6.035,6.035,0,0,0-3.77051-.97558H436.8916Z" style="fill: #ffffff"/>
      </g>
      <path d="M111.21068,49.36321a65.83691,65.83691,0,1,0,23.57919,35.34041" style="fill: none;stroke: #ffffff;stroke-miterlimit: 10;stroke-width: 10px"/>
    </g>
  </g>
</svg>
