<?xml version="1.0" encoding="utf-8"?>
<!-- Generator: Adobe Illustrator 22.1.0, SVG Export Plug-In . SVG Version: 6.00 Build 0)  -->
<svg version="1.1" id="Layer_1" xmlns="http://www.w3.org/2000/svg" xmlns:xlink="http://www.w3.org/1999/xlink" x="0px" y="0px"
	 viewBox="0 0 73.7 17.3" style="enable-background:new 0 0 73.7 17.3;" xml:space="preserve">
<style type="text/css">
	.st0{fill:#A35DD1;}
	.st1{fill:#E2E2E2;}
	.st2{fill:none;}
	.st3{enable-background:new    ;}
	.st4{fill:#FFFFFF;}
</style>
<title>smutbase</title>
<g id="Layer_2_1_">
	<g id="Layer_1-2">
		<g id="svg8">
			<polygon id="Silhouette" class="st0" points="9.9,2.6 4.8,0 0,2.3 0,7.1 5.1,9.6 5.1,14.8 9.9,17.3 14.7,14.8 14.7,9.6 19.8,7.1 
				19.8,2.3 15,0 			"/>
			<path id="Interior" class="st1" d="M15,1.3l2.8,1.4l-7.9,4L2,2.7l2.8-1.4l5.1,2.5L15,1.3z M1.3,3.8v2.8l5.1,2.5v5.2l2.8,1.4v-8
				L1.3,3.8z M10.5,7.8v8l2.8-1.4V9.1l5.1-2.5V3.8L10.5,7.8z"/>
		</g>
	</g>
</g>
<rect x="20.9" y="5.1" class="st2" width="51.2" height="7.1"/>
<g class="st3">
	<path class="st4" d="M24,5.4c0.6,0,1.1,0.1,1.5,0.2c0.4,0.2,0.8,0.4,1.2,0.7l-0.8,1.2c-0.3-0.2-0.6-0.4-0.9-0.5
		c-0.3-0.1-0.6-0.2-1-0.2c-0.2,0-0.3,0-0.4,0.1c-0.1,0-0.2,0.1-0.2,0.1c-0.1,0.1-0.1,0.1-0.1,0.2c0,0.1,0.1,0.2,0.2,0.2
		c0.1,0.1,0.3,0.1,0.5,0.2l0.9,0.2c0.6,0.1,1,0.3,1.3,0.6c0.3,0.3,0.4,0.6,0.4,1.1c0,0.4-0.1,0.8-0.3,1.1c-0.2,0.3-0.5,0.5-0.9,0.7
		c-0.4,0.1-0.8,0.2-1.3,0.2c-0.4,0-0.8,0-1.1-0.1c-0.4-0.1-0.7-0.2-1-0.3c-0.3-0.1-0.6-0.3-0.8-0.5l0.8-1.2c0.2,0.2,0.4,0.3,0.6,0.4
		s0.5,0.2,0.7,0.3c0.3,0.1,0.5,0.1,0.8,0.1c0.2,0,0.3,0,0.4,0c0.1,0,0.2-0.1,0.2-0.1c0-0.1,0.1-0.1,0.1-0.2c0-0.1,0-0.2-0.1-0.2
		c-0.1-0.1-0.2-0.1-0.4-0.2l-1-0.2c-0.3-0.1-0.6-0.2-0.9-0.3c-0.3-0.1-0.5-0.3-0.7-0.5c-0.2-0.2-0.2-0.5-0.2-0.9
		c0-0.4,0.1-0.7,0.3-1s0.5-0.5,0.9-0.7S23.4,5.4,24,5.4z"/>
	<path class="st4" d="M34.6,5.5v5.9H33V9l0-1.9h0l-1.3,4.3h-1.5l-1.3-4.3h0l0,1.9v2.4h-1.6V5.5h2.6l0.8,2.8L31,9.5h0l0.3-1.2
		l0.8-2.8H34.6z"/>
	<path class="st4" d="M41.1,5.5v3.4c0,0.9-0.2,1.5-0.7,1.9c-0.5,0.4-1.2,0.6-2.1,0.6c-0.9,0-1.6-0.2-2.1-0.6
		c-0.5-0.4-0.7-1.1-0.7-1.9V5.5h1.8V9c0,0.4,0.1,0.6,0.2,0.8c0.2,0.2,0.4,0.3,0.7,0.3c0.3,0,0.5-0.1,0.7-0.3
		c0.2-0.2,0.2-0.5,0.2-0.8V5.5H41.1z"/>
	<path class="st4" d="M47.4,5.5v1.4h-1.9v4.6h-1.8V6.9h-1.9V5.5H47.4z"/>
	<path class="st4" d="M48.1,11.4V5.5h3.2c0.7,0,1.3,0.1,1.7,0.4c0.4,0.3,0.5,0.7,0.5,1.2c0,0.3-0.1,0.6-0.3,0.9s-0.5,0.4-1,0.5v0
		c0.5,0.1,0.8,0.2,1.1,0.5c0.2,0.3,0.4,0.6,0.4,0.9c0,0.5-0.2,0.9-0.5,1.2c-0.4,0.3-0.9,0.4-1.6,0.4H48.1z M49.9,7.8h1
		c0.5,0,0.7-0.2,0.7-0.5c0-0.4-0.2-0.5-0.7-0.5h-1V7.8z M49.9,10.2H51c0.2,0,0.4,0,0.5-0.1c0.1-0.1,0.2-0.2,0.2-0.4
		c0-0.2-0.1-0.3-0.2-0.4c-0.1-0.1-0.3-0.1-0.5-0.1h-1.2V10.2z"/>
	<path class="st4" d="M53.8,11.4l2-5.9H58l2,5.9h-1.9l-1-3.6l-0.3-1h0l-0.2,1l-1,3.6H53.8z M55.2,10.2V9h3.4v1.2H55.2z"/>
	<path class="st4" d="M63,5.4c0.6,0,1.1,0.1,1.5,0.2c0.4,0.2,0.8,0.4,1.2,0.7l-0.8,1.2C64.5,7.3,64.3,7.1,64,7
		c-0.3-0.1-0.6-0.2-1-0.2c-0.2,0-0.3,0-0.5,0.1c-0.1,0-0.2,0.1-0.2,0.1c-0.1,0.1-0.1,0.1-0.1,0.2c0,0.1,0.1,0.2,0.2,0.2
		c0.1,0.1,0.3,0.1,0.5,0.2l0.9,0.2c0.6,0.1,1,0.3,1.3,0.6c0.3,0.3,0.4,0.6,0.4,1.1c0,0.4-0.1,0.8-0.3,1.1c-0.2,0.3-0.5,0.5-0.9,0.7
		c-0.4,0.1-0.8,0.2-1.3,0.2c-0.4,0-0.8,0-1.1-0.1c-0.4-0.1-0.7-0.2-1-0.3c-0.3-0.1-0.6-0.3-0.8-0.5l0.8-1.2c0.2,0.2,0.4,0.3,0.6,0.4
		s0.5,0.2,0.7,0.3c0.3,0.1,0.5,0.1,0.8,0.1c0.2,0,0.3,0,0.4,0c0.1,0,0.2-0.1,0.2-0.1c0-0.1,0.1-0.1,0.1-0.2c0-0.1,0-0.2-0.1-0.2
		c-0.1-0.1-0.2-0.1-0.4-0.2l-1-0.2c-0.3-0.1-0.6-0.2-0.9-0.3c-0.3-0.1-0.5-0.3-0.7-0.5c-0.2-0.2-0.2-0.5-0.2-0.9
		c0-0.4,0.1-0.7,0.3-1s0.5-0.5,0.9-0.7S62.4,5.4,63,5.4z"/>
	<path class="st4" d="M66.3,11.4V5.5h4.8v1.4h-3v1h2.4v1.3h-2.4V10h3.1v1.4H66.3z"/>
</g>
</svg>
