<svg xmlns="http://www.w3.org/2000/svg" viewBox="0 0 186 256"><g data-name="Layer 2"><g data-name="File icons"><path fill="#006fcc" stroke="#299eff" stroke-miterlimit="10" stroke-width="8" d="M4 4v248h178V60L125 4H4z"/><path fill="none" stroke="#299eff" stroke-miterlimit="10" stroke-width="8" d="M125 4v56h56M4 206h178"/><g fill="#299eff"><path d="M67.94 244.79v-5.11a11.61 11.61 0 007.4 2.6 8.63 8.63 0 005.36-1.52 4.9 4.9 0 002-4.13q0-5.72-8.74-5.72h-2.6v-4.36h2.48q7.76 0 7.76-5.39 0-4.96-6.05-4.96a9.91 9.91 0 00-6.35 2.4v-4.82a16.25 16.25 0 018.09-1.92 10.83 10.83 0 017.17 2.25 7.17 7.17 0 012.7 5.77q0 6.63-6.75 8.53v.09a8.84 8.84 0 015.74 2.54 7.58 7.58 0 012.1 5.48 8.97 8.97 0 01-3.4 7.3 13.7 13.7 0 01-8.94 2.77 15.28 15.28 0 01-7.97-1.8zM95.85 246.03v-33.6h10.67a12.6 12.6 0 017.72 2.12 6.63 6.63 0 012.85 5.56 7.93 7.93 0 01-1.62 4.97 8.73 8.73 0 01-4.48 3v.1a8.77 8.77 0 015.55 2.56 7.82 7.82 0 012.07 5.63 8.47 8.47 0 01-3.4 6.99 13.46 13.46 0 01-8.58 2.67zm5.56-29.13v9.56h3.6a6.93 6.93 0 004.56-1.37 4.76 4.76 0 001.66-3.88q0-4.31-5.77-4.31zm0 14.04v10.64h4.75a7.24 7.24 0 004.82-1.44 4.93 4.93 0 001.7-3.98q0-5.22-7.24-5.22z"/></g><path d="M93.35 76.24A48.09 48.09 0 1145.29 124a47.86 47.86 0 0148.06-47.76zM75 130.84c-.02-4.6.1-9.2-.37-13.8a44.25 44.25 0 00-1.13-7.39c-1.05-3.8-4.4-6.24-7.59-5.56-3.69.79-5.63 3.89-5.08 8.06a11.4 11.4 0 01.09 2.25c-.2 2.95-2.7 4.22-5.08 2.48-1.12-.8-1.3-.56-1.5.63a41.4 41.4 0 00-.02 13.42c2.74 17.52 18.28 31.83 35.96 32.89 13.58.81 24.87-3.96 33.7-14.34a38.66 38.66 0 006.74-11.8c.2-.55.7-1.33-.27-1.63-2.13-.65-2.44-2.26-2.38-4.14a10.23 10.23 0 00-.65-4.7c-1.28-2.79-3.76-3.36-6.1-1.42a8.59 8.59 0 00-2.76 4.7c-.95 3.75-.74 7.54-.48 11.33.2 2.84 1.13 5.6 1.05 8.47-.05 1.8-1.18 3.12-2.6 3.1-1.38-.03-2.4-1.23-2.53-3.03a21.52 21.52 0 01.4-3.57c.28-2.88.65-5.8-.79-8.52a5.2 5.2 0 00-8.65-1.2 8.82 8.82 0 00-2 3.97 18.77 18.77 0 00-.29 4.92c0 2-.65 2.97-1.96 3-1.33.01-2.18-1.14-2.22-3.02a4.13 4.13 0 01.05-.6 60.08 60.08 0 00.09-13.9c-.35-3.3-.8-6.56-2.48-9.5-2.4-4.2-6.46-6.26-10.32-5.11-3.15.93-4.93 3.3-6.03 6.22a33.74 33.74 0 00-1.7 11.52 80.81 80.81 0 001.31 14.9 6.3 6.3 0 01-.59 4.37 2.1 2.1 0 01-1.91 1.24 2.01 2.01 0 01-1.77-1.43 10.47 10.47 0 01-.71-4.85c.45-5.98.6-11.97.57-17.97z"/><path fill="#299eff" d="M93.35 76.24A48.09 48.09 0 1145.29 124a47.86 47.86 0 0148.06-47.76zM75 130.84c-.02-4.6.1-9.2-.37-13.8a44.25 44.25 0 00-1.13-7.39c-1.05-3.8-4.4-6.24-7.59-5.56-3.69.79-5.63 3.89-5.08 8.06a11.4 11.4 0 01.09 2.25c-.2 2.95-2.7 4.22-5.08 2.48-1.12-.8-1.3-.56-1.5.63a41.4 41.4 0 00-.02 13.42c2.74 17.52 18.28 31.83 35.96 32.89 13.58.81 24.87-3.96 33.7-14.34a38.66 38.66 0 006.74-11.8c.2-.55.7-1.33-.27-1.63-2.13-.65-2.44-2.26-2.38-4.14a10.23 10.23 0 00-.65-4.7c-1.28-2.79-3.76-3.36-6.1-1.42a8.59 8.59 0 00-2.76 4.7c-.95 3.75-.74 7.54-.48 11.33.2 2.84 1.13 5.6 1.05 8.47-.05 1.8-1.18 3.12-2.6 3.1-1.38-.03-2.4-1.23-2.53-3.03a21.52 21.52 0 01.4-3.57c.28-2.88.65-5.8-.79-8.52a5.2 5.2 0 00-8.65-1.2 8.82 8.82 0 00-2 3.97 18.77 18.77 0 00-.29 4.92c0 2-.65 2.97-1.96 3-1.33.01-2.18-1.14-2.22-3.02a4.13 4.13 0 01.05-.6 60.08 60.08 0 00.09-13.9c-.35-3.3-.8-6.56-2.48-9.5-2.4-4.2-6.46-6.26-10.32-5.11-3.15.93-4.93 3.3-6.03 6.22a33.74 33.74 0 00-1.7 11.52 80.81 80.81 0 001.31 14.9 6.3 6.3 0 01-.59 4.37 2.1 2.1 0 01-1.91 1.24 2.01 2.01 0 01-1.77-1.43 10.47 10.47 0 01-.71-4.85c.45-5.98.6-11.97.57-17.97z"/></g></g></svg>
