<svg xmlns="http://www.w3.org/2000/svg" viewBox="0 0 186 256"><g data-name="Layer 2"><g data-name="File icons"><path fill="#006fcc" stroke="#299eff" stroke-miterlimit="10" stroke-width="8" d="M4 4v248h178V60L125 4H4z"/><path fill="none" stroke="#299eff" stroke-miterlimit="10" stroke-width="8" d="M125 4v56h56M4 206h178"/><g fill="#299eff"><path d="M22.75 246.03v-33.6h10.66a12.6 12.6 0 017.73 2.12 6.63 6.63 0 012.84 5.56 7.93 7.93 0 01-1.61 4.97 8.73 8.73 0 01-4.48 3v.1a8.77 8.77 0 015.54 2.56 7.82 7.82 0 012.08 5.63 8.47 8.47 0 01-3.4 6.99 13.46 13.46 0 01-8.58 2.67zm5.55-29.13v9.56h3.61a6.93 6.93 0 004.56-1.37 4.76 4.76 0 001.65-3.88q0-4.31-5.76-4.31zm0 14.04v10.64h4.76a7.24 7.24 0 004.82-1.44 4.93 4.93 0 001.7-3.98q0-5.22-7.24-5.22zM70.35 246.03h-18.6v-33.6h5.57v28.89h13.03zM94.07 246.03H75.2v-33.6h18.12v4.73H80.78v9.51h11.56v4.71H80.78v9.94h13.29zM128.55 246.03h-6.1l-16.05-24.7a10.95 10.95 0 01-1-1.95h-.15a34.6 34.6 0 01.19 4.62v22.03h-5.4v-33.6h6.5l15.51 24.1q.99 1.5 1.27 2.07h.1a29.86 29.86 0 01-.24-4.52v-21.66h5.37zM136.87 246.03v-33.6h9.7q18.59 0 18.59 16.37 0 7.79-5.16 12.5t-13.83 4.73zm5.55-28.87v24.16h4.46q5.88 0 9.15-3.23t3.27-9.14q0-11.8-12.21-11.8z"/></g><g fill="none" stroke="#299eff" stroke-miterlimit="10" stroke-width="5"><path d="M47.48 103.55h69.83v69.83H47.48z"/><path d="M68.43 82.6h69.83v69.83H68.43zM67.61 81.81l-20.95 20.95M138.26 82.6l-20.95 20.95M118.14 174.19l20.95-20.95M47.48 172.68l20.95-20.95"/></g></g></g></svg>
