<svg xmlns="http://www.w3.org/2000/svg" viewBox="0 0 186 256"><g data-name="Layer 2"><g data-name="File icons"><path fill="#006fcc" stroke="#299eff" stroke-miterlimit="10" stroke-width="8" d="M4 4v248h178V60L125 4H4z"/><path fill="none" stroke="#299eff" stroke-miterlimit="10" stroke-width="8" d="M125 4v56h56M4 206h178"/><g fill="#299eff"><path d="M74.51 244.63a20.38 20.38 0 01-9.44 1.96q-7.32 0-11.72-4.61t-4.4-12.12q0-8.06 4.95-13.03a16.96 16.96 0 0112.53-4.97 20.53 20.53 0 018.08 1.38v5.53a14.43 14.43 0 00-7.5-2.01 11.77 11.77 0 00-8.85 3.49 12.83 12.83 0 00-3.38 9.33 12.23 12.23 0 003.16 8.85 11.01 11.01 0 008.32 3.29 14.9 14.9 0 008.25-2.25zM98.44 212.42v21.7h5v4.53h-5v7.38h-5.27v-7.38H77.96v-4.57q2.06-2.32 4.23-5.03t4.17-5.53q2-2.82 3.71-5.66a51.65 51.65 0 002.89-5.44zm-5.27 21.7v-14.1a77.88 77.88 0 01-5.05 8.01q-2.5 3.42-4.68 6.1zM108.54 246.03v-33.6h9.7q18.6 0 18.6 16.37 0 7.79-5.16 12.5t-13.83 4.73zm5.56-28.87v24.16h4.45q5.88 0 9.15-3.23t3.27-9.14q0-11.8-12.2-11.8z"/></g><g fill="none" stroke="#299eff" stroke-miterlimit="10" stroke-width="5"><path d="M47.48 103.55h69.83v69.83H47.48z"/><path d="M68.43 82.6h69.83v69.83H68.43zM67.61 81.81l-20.95 20.95M138.26 82.6l-20.95 20.95M118.14 174.19l20.95-20.95M47.48 172.68l20.95-20.95"/></g></g></g></svg>
