<svg xmlns="http://www.w3.org/2000/svg" viewBox="0 0 186 256"><g data-name="Layer 2"><g data-name="File icons"><path fill="#006fcc" stroke="#299eff" stroke-miterlimit="10" stroke-width="8" d="M4 4v248h178V60L125 4H4z"/><path fill="none" stroke="#299eff" stroke-miterlimit="10" stroke-width="8" d="M125 4v56h56M4 206h178"/><g fill="#299eff"><path d="M85.35 246.03h-5.6v-14.58H63.93v14.58h-5.58v-33.6h5.58v14.12h15.82v-14.13h5.6zM99.37 246.03h-5.75v-33.6h5.75zM113.2 233.84v12.2h-5.56v-33.62h10.2q5.78 0 8.97 2.7a9.4 9.4 0 013.19 7.6 10.5 10.5 0 01-3.33 8q-3.33 3.12-9 3.12zm0-16.82v12.28h3.6a7.98 7.98 0 005.47-1.67 5.94 5.94 0 001.87-4.68q0-5.93-6.89-5.93z"/></g><g fill="none" stroke="#299eff" stroke-miterlimit="10" stroke-width="5"><path d="M47.48 103.55h69.83v69.83H47.48z"/><path d="M68.43 82.6h69.83v69.83H68.43zM67.61 81.81l-20.95 20.95M138.26 82.6l-20.95 20.95M118.14 174.19l20.95-20.95M47.48 172.68l20.95-20.95"/></g></g></g></svg>
