<svg xmlns="http://www.w3.org/2000/svg" viewBox="0 0 186 256"><g data-name="Layer 2"><g data-name="File icons"><path fill="#006fcc" stroke="#299eff" stroke-miterlimit="10" stroke-width="8" d="M4 4v248h178V60L125 4H4z"/><path fill="none" stroke="#299eff" stroke-miterlimit="10" stroke-width="8" d="M125 4v56h56M4 206h178"/><g fill="#299eff"><path d="M52.04 246.03h-5.6v-14.58H30.6v14.58h-5.57v-33.6h5.57v14.12h15.82v-14.13h5.6zM66.05 246.03h-5.74v-33.6h5.74zM79.88 233.84v12.2h-5.56v-33.62h10.2q5.79 0 8.98 2.7a9.4 9.4 0 013.18 7.6 10.5 10.5 0 01-3.32 8q-3.33 3.12-9 3.12zm0-16.82v12.28h3.6a7.98 7.98 0 005.47-1.67 5.94 5.94 0 001.87-4.68q0-5.93-6.89-5.93zM130.88 246.03h-6.1l-16.05-24.7a10.95 10.95 0 01-1-1.95h-.15a34.6 34.6 0 01.19 4.62v22.03h-5.4v-33.6h6.5l15.52 24.1q.98 1.5 1.26 2.07h.1a29.86 29.86 0 01-.24-4.52v-21.66h5.37zM162.64 244.63a20.38 20.38 0 01-9.45 1.96q-7.31 0-11.72-4.61t-4.4-12.12q0-8.06 4.95-13.03a16.96 16.96 0 0112.53-4.97 20.53 20.53 0 018.09 1.38v5.53a14.43 14.43 0 00-7.5-2.01 11.77 11.77 0 00-8.85 3.49 12.83 12.83 0 00-3.39 9.33 12.23 12.23 0 003.17 8.85 11.01 11.01 0 008.32 3.29 14.9 14.9 0 008.25-2.25z"/></g><g fill="none" stroke="#299eff" stroke-miterlimit="10" stroke-width="5"><path d="M47.48 103.55h69.83v69.83H47.48z"/><path d="M68.43 82.6h69.83v69.83H68.43zM67.61 81.81l-20.95 20.95M138.26 82.6l-20.95 20.95M118.14 174.19l20.95-20.95M47.48 172.68l20.95-20.95"/></g></g></g></svg>
