<svg xmlns="http://www.w3.org/2000/svg" viewBox="0 0 186 256"><g data-name="Layer 2"><g data-name="File icons"><path fill="#006fcc" stroke="#299eff" stroke-miterlimit="10" stroke-width="8" d="M4 4v248h178V60L125 4H4z"/><path fill="none" stroke="#299eff" stroke-miterlimit="10" stroke-width="8" d="M125 4v56h56M4 206h178"/><g fill="#299eff"><path d="M71.22 246.03H52.6v-33.6h5.58v28.89h13.03zM101.2 246.03h-6.68l-6.9-12.33a12.39 12.39 0 01-.67-1.6h-.1q-.2.53-.7 1.6l-7.1 12.33h-6.73l11.02-16.9-10.13-16.7h6.82l6.07 11.34q.59 1.12 1.06 2.25h.07q.68-1.48 1.17-2.35l6.3-11.25h6.28L90.62 229.1zM119 246.6q-7.26 0-11.63-4.72T103 229.63q0-8.11 4.45-12.94t12.1-4.83a14.78 14.78 0 0111.4 4.69q4.32 4.68 4.32 12.25 0 8.23-4.43 13.01t-11.83 4.78zm.27-29.84a9.35 9.35 0 00-7.52 3.44 15.77 15.77 0 00-.08 18.1 9.07 9.07 0 007.36 3.42 9.5 9.5 0 007.62-3.26q2.79-3.26 2.79-9.12 0-6.02-2.7-9.3a9.15 9.15 0 00-7.47-3.28z"/></g><g fill="none" stroke="#299eff" stroke-miterlimit="10" stroke-width="5"><path d="M47.48 103.55h69.83v69.83H47.48z"/><path d="M68.43 82.6h69.83v69.83H68.43zM67.61 81.81l-20.95 20.95M138.26 82.6l-20.95 20.95M118.14 174.19l20.95-20.95M47.48 172.68l20.95-20.95"/></g></g></g></svg>
