<svg xmlns="http://www.w3.org/2000/svg" data-name="Layer 1" viewBox="0 0 186 256"><path fill="#006fcc" stroke="#299eff" stroke-miterlimit="10" stroke-width="8" d="M4 4v248h178V60L125 4H4z"/><path fill="none" stroke="#299eff" stroke-miterlimit="10" stroke-width="8" d="M125 4v56h56M4 206h178"/><path fill="#299eff" d="M79.96 246.03h-5.53v-21.75q0-2.67.33-6.54h-.1a22.58 22.58 0 01-.91 3.17l-10.03 25.12h-3.84L49.81 221.1a23.49 23.49 0 01-.89-3.35h-.1q.2 2.02.2 6.59v21.7h-5.16v-33.6h7.85l8.83 22.37a33.1 33.1 0 011.32 3.85h.11q.87-2.65 1.41-3.94l9-22.29h7.57zM115.84 246.03h-6.11l-3.03-8.55H93.48l-2.9 8.55h-6.1l12.59-33.6h6.28zm-10.61-13.1l-4.67-13.4a15.88 15.88 0 01-.44-2.12h-.1a13.72 13.72 0 01-.47 2.11l-4.61 13.41zM145.59 246.03h-6.68L132 233.7a12.39 12.39 0 01-.67-1.6h-.1q-.2.53-.7 1.6l-7.1 12.33h-6.73l11.02-16.9-10.13-16.7h6.82l6.07 11.34q.59 1.12 1.06 2.25h.07q.68-1.48 1.17-2.35l6.3-11.25h6.28l-10.35 16.67z"/><path fill="none" stroke="#299eff" stroke-miterlimit="10" stroke-width="5" d="M47.48 103.55h69.83v69.83H47.48z"/><path fill="none" stroke="#299eff" stroke-miterlimit="10" stroke-width="5" d="M68.43 82.6h69.83v69.83H68.43zM67.61 81.81l-20.95 20.95M138.26 82.6l-20.95 20.95M118.14 174.19l20.95-20.95M47.48 172.68l20.95-20.95"/></svg>
