<svg xmlns="http://www.w3.org/2000/svg" viewBox="0 0 186 256"><g data-name="Layer 2"><g data-name="File icons"><path fill="#006fcc" stroke="#299eff" stroke-miterlimit="10" stroke-width="8" d="M4 4v248h178V60L125 4H4z"/><path fill="none" stroke="#299eff" stroke-miterlimit="10" stroke-width="8" d="M125 4v56h56M4 206h178"/><g fill="#299eff"><path d="M96.44 246.03H90.9v-21.75q0-2.67.32-6.54h-.09a22.58 22.58 0 01-.91 3.17L80.2 246.03h-3.85L66.3 221.1a23.49 23.49 0 01-.9-3.35h-.09q.19 2.02.19 6.59v21.7h-5.16v-33.6h7.86l8.83 22.37a33.1 33.1 0 011.31 3.85h.12q.87-2.65 1.4-3.94l9-22.29h7.58zM104.71 246.03v-33.6h10.67a12.6 12.6 0 017.72 2.12 6.63 6.63 0 012.85 5.56 7.93 7.93 0 01-1.62 4.97 8.73 8.73 0 01-4.48 3v.1a8.77 8.77 0 015.54 2.56 7.82 7.82 0 012.08 5.63 8.47 8.47 0 01-3.4 6.99 13.46 13.46 0 01-8.58 2.67zm5.56-29.13v9.56h3.6a6.93 6.93 0 004.56-1.37 4.76 4.76 0 001.66-3.88q0-4.31-5.77-4.31zm0 14.04v10.64h4.75a7.24 7.24 0 004.82-1.44 4.93 4.93 0 001.7-3.98q0-5.22-7.24-5.22z"/></g><g fill="none" stroke="#299eff" stroke-miterlimit="10" stroke-width="5"><path d="M47.48 103.55h69.83v69.83H47.48z"/><path d="M68.43 82.6h69.83v69.83H68.43zM67.61 81.81l-20.95 20.95M138.26 82.6l-20.95 20.95M118.14 174.19l20.95-20.95M47.48 172.68l20.95-20.95"/></g></g></g></svg>
