<svg xmlns="http://www.w3.org/2000/svg" viewBox="0 0 186 256"><g data-name="Layer 2"><g data-name="File icons"><path fill="#006fcc" stroke="#299eff" stroke-miterlimit="10" stroke-width="8" d="M4 4v248h178V60L125 4H4z"/><path fill="#299eff" d="M134 120.84l-18.92-5.91v-4.73L92.61 97.19l-16.56 10.64L134 125.57v22.12l-41 23.43-41-23.43v-21.17l18.92 5.91v4.73l22.47 13.01 17.75-10.64L52 121.79V99.67l41-22.26 41 22.26v21.17z"/><path fill="none" stroke="#299eff" stroke-miterlimit="10" stroke-width="8" d="M125 4v56h56M4 206h178"/><g fill="#299eff"><path d="M54.36 244.7v-5.75a8.87 8.87 0 001.84 1.27 14.22 14.22 0 002.26.95 17.83 17.83 0 002.39.6 12.75 12.75 0 002.2.2 9.4 9.4 0 005.24-1.17 3.86 3.86 0 001.72-3.4 3.7 3.7 0 00-.57-2.07 6.02 6.02 0 00-1.6-1.6 16.87 16.87 0 00-2.43-1.4q-1.4-.67-3-1.4-1.7-.9-3.18-1.84a13.72 13.72 0 01-2.57-2.08 8.68 8.68 0 01-1.7-2.56 8.36 8.36 0 01-.63-3.36 7.74 7.74 0 011.07-4.11 9 9 0 012.81-2.88 12.9 12.9 0 013.97-1.69 18.86 18.86 0 014.55-.55q5.27 0 7.69 1.2v5.5a12.28 12.28 0 00-7.36-2.06 13.19 13.19 0 00-2.47.23 7.35 7.35 0 00-2.2.78 4.77 4.77 0 00-1.59 1.38 3.39 3.39 0 00-.6 2.04 3.86 3.86 0 00.46 1.94 5.02 5.02 0 001.37 1.5 14 14 0 002.2 1.33q1.3.64 3.02 1.4 1.75.9 3.31 1.92a15.63 15.63 0 012.74 2.22 9.78 9.78 0 011.88 2.7 7.95 7.95 0 01.7 3.4 7.95 7.95 0 01-3.82 7.17 12.37 12.37 0 01-4.02 1.6 22.66 22.66 0 01-4.8.48 20.46 20.46 0 01-2.08-.13q-1.23-.12-2.52-.37a23.18 23.18 0 01-2.43-.6 7.72 7.72 0 01-1.85-.8zM87.59 233.84v12.2h-5.55v-33.62h10.19q5.79 0 8.98 2.7a9.4 9.4 0 013.18 7.6 10.5 10.5 0 01-3.32 8q-3.33 3.12-9 3.12zm0-16.82v12.28h3.6a7.98 7.98 0 005.47-1.67 5.94 5.94 0 001.88-4.68q0-5.93-6.9-5.93zM115.64 233.84v12.2h-5.55v-33.62h10.2q5.78 0 8.97 2.7a9.4 9.4 0 013.19 7.6 10.5 10.5 0 01-3.33 8q-3.33 3.12-9 3.12zm0-16.82v12.28h3.61a7.98 7.98 0 005.46-1.67 5.94 5.94 0 001.88-4.68q0-5.93-6.9-5.93z"/></g></g></g></svg>
