<svg xmlns="http://www.w3.org/2000/svg" viewBox="0 0 47.17 47.15"><g data-name="Layer 2"><path d="M23.56 0A23.57 23.57 0 110 23.41 23.46 23.46 0 0123.56.01zm-9 26.76c0-2.25.05-4.5-.18-6.76a21.69 21.69 0 00-.55-3.62 3.4 3.4 0 00-3.72-2.73c-1.8.39-2.76 1.9-2.5 3.95a5.59 5.59 0 01.05 1.1 1.49 1.49 0 01-2.5 1.22c-.54-.4-.63-.27-.73.31a20.3 20.3 0 000 6.58 19.49 19.49 0 0017.62 16.12 19.15 19.15 0 0016.53-7.03 18.95 18.95 0 003.3-5.78c.1-.27.34-.65-.13-.8-1.05-.32-1.2-1.11-1.17-2.03a5.01 5.01 0 00-.32-2.3 1.77 1.77 0 00-2.99-.7 4.2 4.2 0 00-1.35 2.3 17.36 17.36 0 00-.24 5.56c.1 1.4.55 2.74.52 4.15a1.4 1.4 0 01-1.28 1.52c-.68-.01-1.18-.6-1.24-1.49a10.55 10.55 0 01.2-1.75 7.15 7.15 0 00-.39-4.17 2.55 2.55 0 00-4.24-.6 4.32 4.32 0 00-.98 1.95 9.2 9.2 0 00-.14 2.42c0 .98-.32 1.45-.96 1.46-.66.01-1.07-.55-1.1-1.47a2.02 2.02 0 01.03-.3 29.45 29.45 0 00.05-6.81 11.62 11.62 0 00-1.22-4.66c-1.17-2.06-3.16-3.07-5.06-2.5a4.57 4.57 0 00-2.95 3.05 16.54 16.54 0 00-.84 5.64 39.61 39.61 0 00.65 7.3 3.09 3.09 0 01-.3 2.15 1.03 1.03 0 01-.93.6.99.99 0 01-.87-.7 5.13 5.13 0 01-.35-2.37c.23-2.93.3-5.87.28-8.81z"/><path fill="#999" d="M23.56 0A23.57 23.57 0 110 23.41 23.46 23.46 0 0123.56.01zm-9 26.76c0-2.25.05-4.5-.18-6.76a21.69 21.69 0 00-.55-3.62 3.4 3.4 0 00-3.72-2.73c-1.8.39-2.76 1.9-2.5 3.95a5.59 5.59 0 01.05 1.1 1.49 1.49 0 01-2.5 1.22c-.54-.4-.63-.27-.73.31a20.3 20.3 0 000 6.58 19.49 19.49 0 0017.62 16.12 19.15 19.15 0 0016.53-7.03 18.95 18.95 0 003.3-5.78c.1-.27.34-.65-.13-.8-1.05-.32-1.2-1.11-1.17-2.03a5.01 5.01 0 00-.32-2.3 1.77 1.77 0 00-2.99-.7 4.2 4.2 0 00-1.35 2.3 17.36 17.36 0 00-.24 5.56c.1 1.4.55 2.74.52 4.15a1.4 1.4 0 01-1.28 1.52c-.68-.01-1.18-.6-1.24-1.49a10.55 10.55 0 01.2-1.75 7.15 7.15 0 00-.39-4.17 2.55 2.55 0 00-4.24-.6 4.32 4.32 0 00-.98 1.95 9.2 9.2 0 00-.14 2.42c0 .98-.32 1.45-.96 1.46-.66.01-1.07-.55-1.1-1.47a2.02 2.02 0 01.03-.3 29.45 29.45 0 00.05-6.81 11.62 11.62 0 00-1.22-4.66c-1.17-2.06-3.16-3.07-5.06-2.5a4.57 4.57 0 00-2.95 3.05 16.54 16.54 0 00-.84 5.64 39.61 39.61 0 00.65 7.3 3.09 3.09 0 01-.3 2.15 1.03 1.03 0 01-.93.6.99.99 0 01-.87-.7 5.13 5.13 0 01-.35-2.37c.23-2.93.3-5.87.28-8.81z"/></g></svg>
