<svg xmlns="http://www.w3.org/2000/svg" viewBox="0 0 318.19 319.59"><defs><style>.cls-1{fill:#4d4d4d;}.cls-2{fill:gray;}.cls-3{fill:#b3b3b3;}.cls-4{fill:#666;}</style></defs><title>cinema4d</title><g id="Layer_2" data-name="Layer 2"><g id="Layer_1-2" data-name="Layer 1"><circle class="cls-1" cx="159.79" cy="159.79" r="157.83"/><path class="cls-2" d="M232.39,215A89.46,89.46,0,1,1,124.19,74.39L24.73,78.1A157.82,157.82,0,0,0,275.6,267Z"/><path class="cls-3" d="M318.19,178.19a38.34,38.34,0,0,0-59.4-32.07h0l-.14.09c-.22.15-.44.3-.65.46-25.17,16.81-44,75.56-68.84,97.7l0,0A85.87,85.87,0,1,1,131.39,95c9.51,0,36.83,7.35,59.67,2.68a47.84,47.84,0,0,0,14.24-5l.08,0c.18-.1.32-.21.5-.32A48.08,48.08,0,0,0,194.31,3.78,159.65,159.65,0,0,0,95.07,13.7L78.51,22.22A159.79,159.79,0,1,0,318.16,181l-.1-.06C318.12,180,318.19,179.1,318.19,178.19Z"/><circle class="cls-4" cx="142.05" cy="152.81" r="31.38"/></g></g></svg>