<svg xmlns="http://www.w3.org/2000/svg" viewBox="0 0 973.16 1000.1"><defs><style>.cls-1{fill:#b3b3b3;}</style></defs><title>houdini</title><g id="Layer_2" data-name="Layer 2"><g id="Layer_1-2" data-name="Layer 1"><g id="_2069a460dcf28295e231f3111e041a3f" data-name="2069a460dcf28295e231f3111e041a3f"><path class="cls-1" d="M646.33,548.37C625.41,447.75,522,328.57,407.86,302.55,289.08,275.71,209.59,275,116.33,337.65,89,356,43,387.45,0,434.39V590.51C60.51,459.18,198.57,349.28,353.16,389c262.55,67.24,220.51,252.24,189,327.24-56.63,135-264.79,193.27-328.88,64.29C143.67,640.3,299,617.35,299,617.35s-40.41,39.28,10.31,91c35.1,36.12,101.93,3.36,125.1-60,20.41-55.31-23.47-131.94-119.49-140.21-80.41-7-201,54-213.37,176.63C89.9,800.92,141.84,849.08,217.24,900.41c75.21,51.32,236.13,70.51,328-19.49C645.1,783.16,674.39,682.75,646.33,548.37ZM0,0V306.22c45.92-40.61,84.08-60.91,85.71-61.83,167.45-97.15,315-49,401.74-21.53,137,43.26,244.79,151.12,291.32,262C833,614,786.12,860.61,603.26,985.2c-8,5.41-16,10.1-24,14.8H973.16V0ZM0,1000.1H171.22a401.44,401.44,0,0,1-34.49-20.82C86.53,944.79,32.86,896.22,0,835.92V954"/></g></g></g></svg>