<svg xmlns="http://www.w3.org/2000/svg" xmlns:xlink="http://www.w3.org/1999/xlink" viewBox="0 0 500 449.05"><defs><style>.cls-1{fill:url(#linear-gradient);}.cls-2{fill:url(#linear-gradient-2);}.cls-3{fill:#8e8e8e;}.cls-4{fill:#666;}.cls-5{fill:#727272;}.cls-6{fill:#6d6d6d;}.cls-7{fill:#686868;}.cls-8{fill:#676767;}.cls-10,.cls-9{opacity:0.5;}.cls-9{fill:url(#linear-gradient-3);}.cls-10{fill:url(#linear-gradient-4);}.cls-11{fill:url(#linear-gradient-5);}.cls-12{fill:gray;}.cls-13{fill:#838383;}</style><linearGradient id="linear-gradient" x1="-2.12" y1="441.74" x2="501.1" y2="145.43" gradientUnits="userSpaceOnUse"><stop offset="0" stop-color="#b3b3b3"/><stop offset="1" stop-color="#787878"/></linearGradient><linearGradient id="linear-gradient-2" x1="13.19" y1="219.41" x2="449.59" y2="125.75" gradientUnits="userSpaceOnUse"><stop offset="0" stop-color="#9c9c9c"/><stop offset="1" stop-color="#727272"/></linearGradient><linearGradient id="linear-gradient-3" x1="298.91" y1="374.58" x2="300.55" y2="375.95" gradientUnits="userSpaceOnUse"><stop offset="0" stop-color="#727272"/><stop offset="1" stop-color="#787878"/></linearGradient><linearGradient id="linear-gradient-4" x1="371.21" y1="289.21" x2="371.95" y2="289.84" gradientUnits="userSpaceOnUse"><stop offset="0" stop-color="#595959"/><stop offset="1" stop-color="#727272"/></linearGradient><linearGradient id="linear-gradient-5" x1="444.73" y1="200.76" x2="446.07" y2="201.89" xlink:href="#linear-gradient-3"/></defs><title>maya</title><g id="Layer_2" data-name="Layer 2"><g id="Layer_1-2" data-name="Layer 1"><polygon id="_Path_" data-name="&lt;Path&gt;" class="cls-1" points="500 449.05 500 137.74 248.71 0 0 137.52 0 449.05 98.45 449.05 144.75 310.13 250 437.07 350.32 315.92 393.13 449.05 500 449.05"/><polygon id="_Path_2" data-name="&lt;Path&gt;" class="cls-2" points="248.71 0 0 137.74 144.75 310.13 187.3 183.51 248.71 0 307.73 183.51 350.32 315.92 500 137.74 248.71 0"/><polygon id="_Path_3" data-name="&lt;Path&gt;" class="cls-3" points="98.45 449.05 248.71 0 98.45 183.51 98.45 449.05"/><polygon id="_Path_4" data-name="&lt;Path&gt;" class="cls-4" points="393.13 449.05 248.71 0 392.49 183.51 392.55 262.33 393.13 449.05"/><polygon id="_Path_5" data-name="&lt;Path&gt;" class="cls-5" points="161.79 259.41 248.71 0 98.45 183.51 161.79 259.41"/><polygon id="_Path_6" data-name="&lt;Path&gt;" class="cls-6" points="332.14 259.41 248.71 0 392.49 183.51 332.14 259.41"/><polygon id="_Path_7" data-name="&lt;Path&gt;" class="cls-7" points="98.45 254.98 144.75 310.13 161.79 259.41 98.45 183.51 98.45 254.98"/><polygon id="_Path_8" data-name="&lt;Path&gt;" class="cls-8" points="392.55 265.65 350.32 315.92 332.14 259.41 392.49 183.51 392.55 265.65"/><polygon id="_Path_9" data-name="&lt;Path&gt;" class="cls-9" points="247.94 434.58 250 437.07 350.55 316.68 349.55 313.54 247.94 434.58"/><polygon id="_Path_10" data-name="&lt;Path&gt;" class="cls-10" points="392.55 262.33 349.55 313.54 350.55 316.68 392.56 266.39 392.55 262.33"/><polygon id="_Path_11" data-name="&lt;Path&gt;" class="cls-11" points="498.04 136.66 392.55 262.33 392.56 266.39 500 137.74 498.04 136.66"/><polygon id="_Path_12" data-name="&lt;Path&gt;" class="cls-12" points="248.71 0 161.79 259.41 250 348.81 332.14 259.41 248.71 0"/><polygon id="_Path_13" data-name="&lt;Path&gt;" class="cls-13" points="248.71 0 250 348.81 332.14 259.41 248.71 0"/></g></g></svg>