<svg xmlns="http://www.w3.org/2000/svg" viewBox="0 0 1000.54 847.92"><defs><style>.cls-1{fill:#b3b3b3;}</style></defs><title>modo</title><g id="Layer_2" data-name="Layer 2"><g id="Layer_1-2" data-name="Layer 1"><g id="_2069a460dcf28295e231f3111e03ec8e" data-name="2069a460dcf28295e231f3111e03ec8e"><path class="cls-1" d="M749.18,381.94C778,491.49,814.52,643.4,804.72,710.17,791,802.77,733.66,850.35,645,828.6c-73.31-18-143.14-134.05-252.28-226.55-81.88-69.32-118.53-98.52-155.18-112.4,2.55-24.4,8.88-42.88,27.77-48.5-23.59,4.6-40,15-43.7,50.34a112.13,112.13,0,0,0-.71,16.23v.41c.71,70.14,40.32,226.75,29,266.36-9.19,32.16-51.56,56.67-87.6,67-59.72,17-74.12-4.6-82.39-9-33.38-18.07-101.38-193.26-73.3-354,14.19-81.17,60.54-163.45,145.48-186.63,81-22.05,193.47,16.64,344.27,150.59C531.61,555.81,584.8,694.55,579.8,723c6.94-36.45-61-253.5-85.66-366.83-3.88-20-7-38.9-9.7-57-2.24-32.77,38.19-66,79.64-82.08,49.31-19.1,130.17-15.83,145,13.17,4.29,21.54,10.93,48.59,21.14,82.49C735.8,334.77,742.23,358,749.18,381.94Zm-28.59-168c4.18-2.45,8-4.9,11.23-7A105.76,105.76,0,0,0,719,203.07C719.36,206.44,720,210.11,720.59,213.89Zm-9.09-160c9.91,18.68,14,42.88,14,63.6,0,17.56-3,32.47-7.86,39.72-.31,1.12-1.23,5.1-1.23,14.29,0,4.39.21,10,.82,16.74,8.17,1.33,17.46,4.29,27.26,8.27,44.41-41.86,58.7-104.85,48.6-125.88C740.29,29.1,691.39,3.27,643.51,0,672.3,9,697.62,27.67,711.5,53.91ZM873.63,277.09c18.38-17.46,51-53.3,63.5-69.84-46.45-50.13-101.58-100.66-101.58-100.66-8.58-7.66-17-15-25.42-22,.51,12.35-1.64,27.15-6.54,43-5.31,16.95-18,47.88-45.23,75.35C794.91,220.32,837.79,250,873.63,277.09ZM745.5,312.21c12.56,11,26.34,23.17,40.43,35.12,15.31-5.21,54.93-40.74,74.33-58.09l2.85-2.66c-37.26-27.87-80.86-57.68-115.87-73.51-7,5.62-16.65,11.54-23.89,15.62,3.57,18,8.88,40,16.64,67C741.72,301.28,743.66,306.8,745.5,312.21ZM553,206.44c-10.41-38.09-30.53-125-14.09-174.08-49.72,38.29-71.26,110.16-58.81,231.56C494.75,239.52,523.65,218.89,553,206.44Zm151.92,0c-5.72-39.41-1.33-52.68-.31-55a7.49,7.49,0,0,1,1.23-1.94c7.14-8.07,10-57.38-6.74-89C676.28,17.66,619-2.35,570.82,13.58,534,29.1,544.88,122.41,566.32,201.33,608.69,187.45,672.3,186,704.87,206.44Zm295.46,88c-1.84-15.21-25.12-45.12-53.5-76.57-13.78,17.56-43.29,50.13-61.77,68,29.82,23.07,53.2,42.88,60.85,49.51,14.09-4.29,48.4-27.26,54.52-35.53A23.4,23.4,0,0,0,1000.33,294.44Zm-94.44,110c16.23-5.72,33.39-17.77,49.42-30.22C969.8,363,984.81,343,993.39,324.46c-14.4,10.51-32.67,21-43.9,24.4C942.54,367.24,921.41,389.59,905.89,404.4Zm-31.34-109-4.9,4.39c-26.75,24.1-54,47.78-71.88,57.58,30.33,24.91,61,46.56,84,50,14.9-12.86,45.84-42.17,54.11-62.28C924.68,335.38,902,316.39,874.55,295.36Z"/></g></g></g></svg>