<svg xmlns="http://www.w3.org/2000/svg" xmlns:xlink="http://www.w3.org/1999/xlink" viewBox="0 0 73.8 64.8"><defs><style>.cls-1{fill:none;}.cls-2{fill:#00c4ae;}.cls-3{clip-path:url(#clip-path);}.cls-4{fill:#4aa393;}</style><clipPath id="clip-path" transform="translate(-19.1 -10.8)"><rect class="cls-1" x="55.83" y="5.84" width="37" height="69.63"/></clipPath></defs><title>logo_icon</title><g id="Layer_2" data-name="Layer 2"><g id="Layer_1-2" data-name="Layer 1"><g id="M_Letter" data-name="M Letter"><path class="cls-2" d="M24.5,10.8a5.18,5.18,0,0,1,3.78,1.62L56,40.05,83.63,12.42a5.41,5.41,0,0,1,7.65,7.65l-31.5,31.5a5.38,5.38,0,0,1-7.56,0L20.63,20.07A5.47,5.47,0,0,1,24.5,10.8Zm5.4,59.4a5.4,5.4,0,0,1-10.8,0V47.7a5.4,5.4,0,1,1,10.8,0Zm63,0a5.4,5.4,0,1,1-10.8,0V47.7a5.4,5.4,0,1,1,10.8,0Z" transform="translate(-19.1 -10.8)"/><g class="cls-3"><path class="cls-4" d="M24.5,10.8a5.18,5.18,0,0,1,3.78,1.62L56,40.05,83.63,12.42a5.41,5.41,0,0,1,7.65,7.65l-31.5,31.5a5.38,5.38,0,0,1-7.56,0L20.63,20.07A5.47,5.47,0,0,1,24.5,10.8Zm5.4,59.4a5.4,5.4,0,0,1-10.8,0V47.7a5.4,5.4,0,1,1,10.8,0Zm63,0a5.4,5.4,0,1,1-10.8,0V47.7a5.4,5.4,0,1,1,10.8,0Z" transform="translate(-19.1 -10.8)"/></g></g></g></g></svg>