<svg xmlns="http://www.w3.org/2000/svg" viewBox="0 0 354.79 28.8"><defs><style>.cls-1{fill:#00c4ae;}</style></defs><title>logo_text</title><g id="Layer_2" data-name="Layer 2"><g id="Layer_1-2" data-name="Layer 1"><path class="cls-1" d="M11.9,4.8a2.3,2.3,0,0,1,1.68.72L25.9,17.8,38.17,5.52a2.4,2.4,0,1,1,3.4,3.4l-14,14a2.39,2.39,0,0,1-3.36,0l-14-14A2.43,2.43,0,0,1,11.9,4.8Zm2.4,26.4a2.4,2.4,0,0,1-4.8,0v-10a2.4,2.4,0,0,1,4.8,0Zm28,0a2.4,2.4,0,1,1-4.79,0v-10a2.4,2.4,0,1,1,4.79,0Z" transform="translate(-9.5 -4.8)"/><path class="cls-1" d="M57.5,7.2a2.4,2.4,0,1,1,4.8,0v24a2.4,2.4,0,0,1-4.8,0ZM79.9,4.8a2.4,2.4,0,0,1,0,4.8h-10a2.4,2.4,0,0,1,0-4.8Zm-10,16.8a2.4,2.4,0,0,1,0-4.8h6a2.4,2.4,0,0,1,0,4.8Zm10,7.2a2.4,2.4,0,0,1,0,4.8h-10a2.4,2.4,0,0,1,0-4.8Z" transform="translate(-9.5 -4.8)"/><path class="cls-1" d="M112.82,28.2c1.88-.56,2.84-1.56,2.84-3,0-2.4-2.48-3.6-7.4-3.6a16.38,16.38,0,0,1-8.88-2.12,7,7,0,0,1-3.32-6.28c0-3.56,2.36-6.24,6.24-7.56a4.51,4.51,0,0,1,1-.2,2.41,2.41,0,0,1,2.4,2.4c0,1.08-.68,1.84-2,2.36-1.88.6-2.8,1.6-2.8,3,0,2.4,2.48,3.6,7.4,3.6a16.38,16.38,0,0,1,8.88,2.12,7,7,0,0,1,3.32,6.28c0,3.64-2.32,6.28-6.28,7.6a7.08,7.08,0,0,1-.92.16,2.4,2.4,0,0,1-.44-4.76Zm-9.4.28a2.62,2.62,0,0,1,2.24,2.4,2.41,2.41,0,0,1-2.4,2.4l-.6-.08a23.44,23.44,0,0,1-4.92-1.36,2.45,2.45,0,0,1-1.48-3.12,2.34,2.34,0,0,1,3-1.44A29.52,29.52,0,0,0,103.42,28.48Zm9.84-23.16.76.12a22.85,22.85,0,0,1,3.56,1.16,2.36,2.36,0,0,1,1.48,3,2.21,2.21,0,0,1-3,1.48,26.75,26.75,0,0,0-3.28-1,2.47,2.47,0,0,1-1.92-2.36A2.41,2.41,0,0,1,113.26,5.32Z" transform="translate(-9.5 -4.8)"/><path class="cls-1" d="M134.7,7.2a2.4,2.4,0,0,1,4.8,0v24a2.4,2.4,0,0,1-4.8,0Zm22,14.4h-9.6a2.4,2.4,0,0,1,0-4.8h9.6V7.2a2.4,2.4,0,1,1,4.79,0v24a2.4,2.4,0,1,1-4.79,0Z" transform="translate(-9.5 -4.8)"/><path class="cls-1" d="M176.7,7.2a2.4,2.4,0,0,1,4.8,0v24a2.4,2.4,0,0,1-4.8,0Zm22,14.4h-9.6a2.4,2.4,0,0,1,0-4.8h9.6V7.2a2.4,2.4,0,1,1,4.79,0v24a2.4,2.4,0,1,1-4.79,0Z" transform="translate(-9.5 -4.8)"/><path class="cls-1" d="M219.78,11.4a14.36,14.36,0,0,1,6.08-5.28,2.43,2.43,0,0,1,3.32,1.16,2.38,2.38,0,0,1-1.2,3.16A9.6,9.6,0,0,0,228,28a2.41,2.41,0,1,1-2,4.4,14.36,14.36,0,0,1-6.2-5.24,14,14,0,0,1-2.32-7.92A14.11,14.11,0,0,1,219.78,11.4Zm16,16.56a9.57,9.57,0,0,0,0-17.52,2.4,2.4,0,1,1,2.08-4.32A14.44,14.44,0,0,1,244,11.4a13.83,13.83,0,0,1,2.32,7.8,14.13,14.13,0,0,1-2.35,7.92,14.41,14.41,0,0,1-6.2,5.24,2.41,2.41,0,1,1-2-4.4Z" transform="translate(-9.5 -4.8)"/><path class="cls-1" d="M264.7,20.2a8.62,8.62,0,0,0,4.48,7.6,2.45,2.45,0,0,1,1.44,3.32,2.37,2.37,0,0,1-3.16,1.16A13.37,13.37,0,0,1,259.9,20.2V7.2a2.4,2.4,0,1,1,4.8,0Zm17.2-13a2.4,2.4,0,1,1,4.79,0v13a12.91,12.91,0,0,1-2.08,7.16,12.85,12.85,0,0,1-5.43,4.88,2.31,2.31,0,0,1-3.2-1.12,2.51,2.51,0,0,1,1.36-3.32,8.43,8.43,0,0,0,4.56-7.6Z" transform="translate(-9.5 -4.8)"/><path class="cls-1" d="M317.62,28.2c1.88-.56,2.84-1.56,2.84-3,0-2.4-2.48-3.6-7.4-3.6a16.38,16.38,0,0,1-8.88-2.12,7,7,0,0,1-3.32-6.28c0-3.56,2.36-6.24,6.24-7.56a4.51,4.51,0,0,1,1-.2,2.41,2.41,0,0,1,2.4,2.4c0,1.08-.68,1.84-2,2.36-1.88.6-2.8,1.6-2.8,3,0,2.4,2.48,3.6,7.4,3.6a16.38,16.38,0,0,1,8.88,2.12,7,7,0,0,1,3.31,6.28c0,3.64-2.31,6.28-6.27,7.6a7.08,7.08,0,0,1-.92.16,2.4,2.4,0,0,1-.44-4.76Zm-9.4.28a2.62,2.62,0,0,1,2.24,2.4,2.41,2.41,0,0,1-2.4,2.4l-.6-.08a23.44,23.44,0,0,1-4.92-1.36,2.45,2.45,0,0,1-1.48-3.12,2.34,2.34,0,0,1,3-1.44A29.52,29.52,0,0,0,308.22,28.48Zm9.84-23.16.76.12a22.85,22.85,0,0,1,3.56,1.16,2.38,2.38,0,0,1,1.48,3,2.21,2.21,0,0,1-3,1.48,26.75,26.75,0,0,0-3.28-1,2.47,2.47,0,0,1-1.92-2.36A2.41,2.41,0,0,1,318.06,5.32Z" transform="translate(-9.5 -4.8)"/><path class="cls-1" d="M339.5,7.2a2.4,2.4,0,0,1,4.8,0v24a2.4,2.4,0,0,1-4.8,0Zm22.4-2.4a2.4,2.4,0,0,1,0,4.8h-10a2.4,2.4,0,1,1,0-4.8Zm-10,16.8a2.4,2.4,0,1,1,0-4.8h6a2.4,2.4,0,1,1,0,4.8Zm10,7.2a2.4,2.4,0,0,1,0,4.8h-10a2.4,2.4,0,1,1,0-4.8Z" transform="translate(-9.5 -4.8)"/></g></g></svg>