<svg xmlns="http://www.w3.org/2000/svg" viewBox="0 0 476 476"><defs><style>.cls-1{fill:#005ead}.cls-2{fill:#004b8a}.cls-3{fill:#299eff}.cls-4{fill:#006fcc}</style></defs><g id="Layer_2" data-name="Layer 2"><g id="Layer_3" data-name="Layer 3"><path d="M0 477l58-114 52 114H0z" class="cls-1"/><path d="M110 326l-52 37 52 114V326z" class="cls-2"/><path d="M58 363L0 309v168l58-114z" class="cls-3"/><path d="M0 161V0l86 107-86 54z" class="cls-2"/><path d="M86 107L108 0H0l86 107z" class="cls-1"/><path d="M238 389v87h-30l30-87z" class="cls-2"/><path d="M108 0l130 297L86 107 108 0z" class="cls-4"/><path d="M58 363l52-125v88l-52 37z" class="cls-4"/><path d="M86 107L0 309V161l86-54z" class="cls-3"/><path d="M110 238L0 309l86-202 24 131z" class="cls-4"/><path d="M58 363l52-125L0 309l58 54z" class="cls-1"/><path d="M238 389l-78-30 48 117 30-87z" class="cls-1"/><path d="M160 359l78-62v92l-78-30z" class="cls-4"/><path d="M160 359l-50-121 128 59-78 62z" class="cls-3"/><path d="M110 238L86 107l152 190-128-59z" class="cls-2"/><path d="M476 477l-58-114-52 114h110z" class="cls-1"/><path d="M366 326l52 37-52 114V326z" class="cls-3"/><path d="M418 363l58-54v168l-58-114z" class="cls-2"/><path d="M476 161V0l-86 107 86 54z" class="cls-4"/><path d="M390 107L368 0h108l-86 107z" class="cls-3"/><path d="M238 389v87h30l-30-87z" class="cls-4"/><path d="M368 0L238 297l152-190L368 0z" class="cls-1"/><path d="M418 363l-52-125v88l52 37z" class="cls-2"/><path d="M390 107l86 202V161l-86-54z" class="cls-1"/><path d="M366 238l110 71-86-202-24 131z" class="cls-3"/><path d="M418 363l-52-125 110 71-58 54z" class="cls-1"/><path d="M238 389l78-30-48 117-30-87z" class="cls-2"/><path d="M316 359l-78-62v92l78-30z" class="cls-3"/><path d="M316 359l50-121-128 59 78 62z" class="cls-1"/><path d="M366 238l24-131-152 190 128-59z" class="cls-4"/></g></g></svg>