<svg xmlns="http://www.w3.org/2000/svg" xmlns:xlink="http://www.w3.org/1999/xlink" viewBox="0 0 354.79 104.46"><defs><style>.cls-1{fill:none;}.cls-2{fill:#00c4ae;}.cls-3{clip-path:url(#clip-path);}.cls-4{fill:#4aa393;}</style><clipPath id="clip-path" transform="translate(-79.67 -10.8)"><rect class="cls-1" x="256.83" y="5.84" width="37" height="69.63"/></clipPath></defs><title>logo_full</title><g id="Layer_2" data-name="Layer 2"><g id="Layer_1-2" data-name="Layer 1"><path class="cls-2" d="M82.07,86.47a2.3,2.3,0,0,1,1.68.72L96.06,99.47l12.28-12.28a2.4,2.4,0,0,1,3.4,3.4l-14,14a2.39,2.39,0,0,1-3.36,0l-14-14a2.43,2.43,0,0,1,1.72-4.12Zm2.4,26.4a2.4,2.4,0,1,1-4.8,0v-10a2.4,2.4,0,1,1,4.8,0Zm28,0a2.4,2.4,0,1,1-4.8,0v-10a2.4,2.4,0,1,1,4.8,0Z" transform="translate(-79.67 -10.8)"/><path class="cls-2" d="M127.67,88.87a2.4,2.4,0,1,1,4.8,0v24a2.4,2.4,0,1,1-4.8,0Zm22.39-2.4a2.4,2.4,0,0,1,0,4.8h-10a2.4,2.4,0,0,1,0-4.8Zm-10,16.8a2.4,2.4,0,0,1,0-4.8h6a2.4,2.4,0,0,1,0,4.8Zm10,7.2a2.4,2.4,0,0,1,0,4.8h-10a2.4,2.4,0,0,1,0-4.8Z" transform="translate(-79.67 -10.8)"/><path class="cls-2" d="M183,109.87c1.88-.56,2.84-1.56,2.84-3,0-2.4-2.48-3.6-7.4-3.6a16.35,16.35,0,0,1-8.87-2.12,7,7,0,0,1-3.32-6.28c0-3.56,2.36-6.24,6.23-7.56a4.51,4.51,0,0,1,1-.2,2.41,2.41,0,0,1,2.4,2.4c0,1.08-.68,1.84-2,2.36-1.88.6-2.8,1.6-2.8,3,0,2.4,2.48,3.6,7.4,3.6a16.38,16.38,0,0,1,8.88,2.12,7,7,0,0,1,3.32,6.28c0,3.64-2.32,6.28-6.28,7.6a7.08,7.08,0,0,1-.92.16,2.4,2.4,0,0,1-.44-4.76Zm-9.4.28a2.62,2.62,0,0,1,2.24,2.4,2.41,2.41,0,0,1-2.4,2.4l-.6-.08a23.51,23.51,0,0,1-4.91-1.36,2.45,2.45,0,0,1-1.48-3.12,2.34,2.34,0,0,1,3-1.44A29.8,29.8,0,0,0,173.58,110.15ZM183.42,87l.76.12a22.85,22.85,0,0,1,3.56,1.16,2.36,2.36,0,0,1,1.48,3,2.21,2.21,0,0,1-3,1.48,26.75,26.75,0,0,0-3.28-1A2.47,2.47,0,0,1,181,89.39,2.41,2.41,0,0,1,183.42,87Z" transform="translate(-79.67 -10.8)"/><path class="cls-2" d="M204.87,88.87a2.4,2.4,0,1,1,4.8,0v24a2.4,2.4,0,1,1-4.8,0Zm22,14.4h-9.6a2.4,2.4,0,1,1,0-4.8h9.6v-9.6a2.4,2.4,0,0,1,4.8,0v24a2.4,2.4,0,0,1-4.8,0Z" transform="translate(-79.67 -10.8)"/><path class="cls-2" d="M246.87,88.87a2.4,2.4,0,1,1,4.79,0v24a2.4,2.4,0,1,1-4.79,0Zm22,14.4h-9.6a2.4,2.4,0,1,1,0-4.8h9.6v-9.6a2.4,2.4,0,0,1,4.8,0v24a2.4,2.4,0,1,1-4.8,0Z" transform="translate(-79.67 -10.8)"/><path class="cls-2" d="M289.94,93.07A14.36,14.36,0,0,1,296,87.79,2.43,2.43,0,0,1,299.34,89a2.38,2.38,0,0,1-1.2,3.16,9.6,9.6,0,0,0,0,17.52,2.41,2.41,0,1,1-2,4.4,14.36,14.36,0,0,1-6.2-5.24,14.58,14.58,0,0,1,0-15.72Zm16,16.56a9.57,9.57,0,0,0,0-17.52A2.4,2.4,0,1,1,308,87.79a14.47,14.47,0,0,1,6.12,5.28,13.83,13.83,0,0,1,2.32,7.8,14.07,14.07,0,0,1-2.36,7.92,14.36,14.36,0,0,1-6.2,5.24,2.41,2.41,0,1,1-2-4.4Z" transform="translate(-79.67 -10.8)"/><path class="cls-2" d="M334.86,101.87a8.62,8.62,0,0,0,4.48,7.6,2.45,2.45,0,0,1,1.44,3.32,2.37,2.37,0,0,1-3.16,1.16,13.37,13.37,0,0,1-7.56-12.08v-13a2.4,2.4,0,0,1,4.8,0Zm17.2-13a2.4,2.4,0,0,1,4.8,0v13a13.43,13.43,0,0,1-7.52,12,2.31,2.31,0,0,1-3.2-1.12,2.51,2.51,0,0,1,1.36-3.32,8.43,8.43,0,0,0,4.56-7.6Z" transform="translate(-79.67 -10.8)"/><path class="cls-2" d="M387.78,109.87c1.88-.56,2.84-1.56,2.84-3,0-2.4-2.48-3.6-7.4-3.6a16.38,16.38,0,0,1-8.88-2.12A7,7,0,0,1,371,94.87c0-3.56,2.36-6.24,6.24-7.56a4.51,4.51,0,0,1,1-.2,2.41,2.41,0,0,1,2.4,2.4c0,1.08-.68,1.84-2,2.36-1.88.6-2.8,1.6-2.8,3,0,2.4,2.48,3.6,7.4,3.6a16.38,16.38,0,0,1,8.88,2.12,7,7,0,0,1,3.32,6.28c0,3.64-2.32,6.28-6.28,7.6a7.08,7.08,0,0,1-.92.16,2.4,2.4,0,0,1-.44-4.76Zm-9.4.28a2.62,2.62,0,0,1,2.24,2.4,2.41,2.41,0,0,1-2.4,2.4l-.6-.08a23.44,23.44,0,0,1-4.92-1.36,2.45,2.45,0,0,1-1.48-3.12,2.34,2.34,0,0,1,3-1.44A29.52,29.52,0,0,0,378.38,110.15ZM388.22,87l.76.12a22.85,22.85,0,0,1,3.56,1.16,2.36,2.36,0,0,1,1.48,3,2.21,2.21,0,0,1-3,1.48,26.75,26.75,0,0,0-3.28-1,2.47,2.47,0,0,1-1.92-2.36A2.41,2.41,0,0,1,388.22,87Z" transform="translate(-79.67 -10.8)"/><path class="cls-2" d="M409.66,88.87a2.4,2.4,0,0,1,4.8,0v24a2.4,2.4,0,0,1-4.8,0Zm22.4-2.4a2.4,2.4,0,0,1,0,4.8h-10a2.4,2.4,0,1,1,0-4.8Zm-10,16.8a2.4,2.4,0,1,1,0-4.8h6a2.4,2.4,0,0,1,0,4.8Zm10,7.2a2.4,2.4,0,0,1,0,4.8h-10a2.4,2.4,0,1,1,0-4.8Z" transform="translate(-79.67 -10.8)"/><g id="M_Letter" data-name="M Letter"><path class="cls-2" d="M225.5,10.8a5.18,5.18,0,0,1,3.78,1.62L257,40.05l27.63-27.63a5.41,5.41,0,0,1,7.65,7.65l-31.5,31.5a5.38,5.38,0,0,1-7.56,0l-31.59-31.5a5.47,5.47,0,0,1,3.87-9.27Zm5.4,59.4a5.4,5.4,0,1,1-10.8,0V47.7a5.4,5.4,0,1,1,10.8,0Zm63,0a5.4,5.4,0,1,1-10.8,0V47.7a5.4,5.4,0,1,1,10.8,0Z" transform="translate(-79.67 -10.8)"/><g class="cls-3"><path class="cls-4" d="M225.5,10.8a5.18,5.18,0,0,1,3.78,1.62L257,40.05l27.63-27.63a5.41,5.41,0,0,1,7.65,7.65l-31.5,31.5a5.38,5.38,0,0,1-7.56,0l-31.59-31.5a5.47,5.47,0,0,1,3.87-9.27Zm5.4,59.4a5.4,5.4,0,1,1-10.8,0V47.7a5.4,5.4,0,1,1,10.8,0Zm63,0a5.4,5.4,0,1,1-10.8,0V47.7a5.4,5.4,0,1,1,10.8,0Z" transform="translate(-79.67 -10.8)"/></g></g></g></g></svg>